<svg width="147" height="141" viewBox="0 0 147 141" fill="none" xmlns="http://www.w3.org/2000/svg">
<path d="M148.565 58.2056C148.565 58.2056 35.6322 37.9172 34.6807 52.7158C33.7406 67.5236 91.4779 182.151 102.101 168.866C112.724 155.581 165.658 64.0942 148.565 58.2056Z" fill="white"/>
<path d="M108.648 39.8722C105.831 39.7053 103.066 40.5767 100.687 42.0945C86.8745 50.9306 27.3484 89.9042 33.3116 101.062C39.706 112.996 133.118 41.306 108.639 39.8837L108.648 39.8722Z" fill="#7952B3"/>
<path d="M100.503 81.3164C100.503 81.3164 64.3457 99.5514 71.5542 104.733C78.7535 109.926 96.3607 95.029 102.517 99.3879C108.684 103.756 54.1067 140.748 55.5505 139.648" stroke="#343A40" stroke-width="2" stroke-miterlimit="10" stroke-linecap="round"/>
</svg>
