<svg width="33" height="35" viewBox="0 0 33 35" fill="none" xmlns="http://www.w3.org/2000/svg">
<rect y="0.638672" width="33" height="34" rx="10" fill="white"/>
<g clip-path="url(#clip0_990_3769)">
<rect x="5.5" y="7.13867" width="22" height="21" rx="5" fill="white"/>
<path d="M27.488 17.8351C27.488 16.9747 27.4132 16.3469 27.2512 15.6958H16.7188V19.579H22.9011C22.7765 20.5441 22.1034 21.9974 20.6076 22.974L20.5867 23.104L23.9168 25.5104L24.1475 25.5319C26.2665 23.7065 27.488 21.0207 27.488 17.8351Z" fill="#3792DE"/>
<path d="M16.7187 28.0665C19.7475 28.0665 22.2902 27.1363 24.1475 25.5319L20.6076 22.974C19.6603 23.5902 18.3889 24.0204 16.7187 24.0204C13.7522 24.0204 11.2344 22.1951 10.3369 19.6721L10.2053 19.6825L6.74255 22.1823L6.69727 22.2997C8.54198 25.7179 12.3312 28.0665 16.7187 28.0665Z" fill="#34A853"/>
<path d="M10.3371 19.6721C10.1003 19.021 9.96325 18.3234 9.96325 17.6026C9.96325 16.8817 10.1003 16.1841 10.3247 15.533L10.3184 15.3944L6.81225 12.8545L6.69753 12.9054C5.93724 14.3239 5.50098 15.9167 5.50098 17.6026C5.50098 19.2884 5.93724 20.8812 6.69753 22.2997L10.3371 19.6721Z" fill="#FBBC05"/>
<path d="M16.7187 11.1847C18.8251 11.1847 20.2461 12.0334 21.0563 12.7427L24.2222 9.85929C22.2778 8.17344 19.7475 7.13867 16.7187 7.13867C12.3312 7.13867 8.54198 9.48723 6.69727 12.9054L10.3244 15.5331C11.2344 13.0101 13.7522 11.1847 16.7187 11.1847Z" fill="#EB4335"/>
</g>
<defs>
<clipPath id="clip0_990_3769">
<rect x="5.5" y="7.13867" width="22" height="21" rx="5" fill="white"/>
</clipPath>
</defs>
</svg>
