<svg width="157" height="146" viewBox="0 0 157 146" fill="none" xmlns="http://www.w3.org/2000/svg">
<path d="M74.5073 3.09868C110.665 4.74184 138.646 35.3918 137.002 71.555C135.359 107.718 103.328 138.217 67.1703 136.574C31.0128 134.931 1.85416 97.8031 3.49758 61.6399C5.141 25.4768 38.3498 1.45552 74.5073 3.09868Z" fill="white"/>
<path d="M123.011 77.0261C106.341 72.8904 89.4753 83.0533 85.3399 99.7257C81.2046 116.398 91.3657 133.266 108.035 137.402C124.705 141.538 141.571 131.375 145.706 114.703C149.842 98.0302 139.681 81.1619 123.011 77.0261Z" stroke="#343A40" stroke-width="2" stroke-miterlimit="10" stroke-linecap="round"/>
<path d="M35.3873 41.5737C21.5844 55.6189 25.1659 71.0397 26.6136 76.7269C26.842 77.5905 27.8975 77.9229 28.5758 77.3515L85.1915 29.6665C67.31 24.1359 48.0324 28.7139 35.3873 41.5737Z" fill="#FFC107"/>
<path d="M66.1602 62.3965C67.5017 61.5875 132.915 7.29235 132.915 7.29235" stroke="#343A40" stroke-width="2" stroke-miterlimit="10" stroke-linecap="round"/>
</svg>
