<svg width="144" height="143" viewBox="0 0 144 143" fill="none" xmlns="http://www.w3.org/2000/svg">
<path d="M148.565 58.2056C148.565 58.2056 35.6322 37.9172 34.6807 52.7158C33.7406 67.5236 91.4779 182.151 102.101 168.866C112.724 155.581 165.658 64.0942 148.565 58.2056Z" fill="white"/>
<path d="M108.648 39.8718C105.831 39.7049 103.067 40.5763 100.688 42.0941C86.8748 50.9302 27.3487 89.9038 33.312 101.061C39.7064 112.996 133.119 41.3056 108.639 39.8833L108.648 39.8718Z" fill="#7952B3"/>
<path d="M100.504 81.3163C100.504 81.3163 64.3463 99.5513 71.5548 104.733C78.7541 109.926 96.3613 95.0289 102.517 99.3878C108.685 103.756 54.1073 140.748 55.5511 139.648" stroke="#343A40" stroke-width="2" stroke-miterlimit="10" stroke-linecap="round"/>
</svg>
