<svg width="497" height="402" viewBox="0 0 497 402" fill="none" xmlns="http://www.w3.org/2000/svg">
<path d="M201.885 268.307C238.175 238.605 243.51 185.11 213.802 148.823C184.093 112.535 130.591 107.196 94.3007 136.898C58.0107 166.6 52.6753 220.095 82.3839 256.382C112.092 292.67 165.595 298.008 201.885 268.307Z" fill="white"/>
<path d="M143.988 198.875C113.636 375.446 355.101 424.708 403.72 304.578C452.31 184.398 318.962 90.4333 268.207 174.828C230.645 237.311 388.939 342.971 486.939 148.405" stroke="#FFC107" stroke-width="16" stroke-miterlimit="10" stroke-linecap="round"/>
<path d="M216.766 110.878C220.027 104.959 294.888 21.3424 411.057 101.482" stroke="#343A40" stroke-width="2" stroke-miterlimit="10" stroke-linecap="round"/>
<path d="M45.8467 258.069C45.8467 258.069 64.5321 299.228 127.627 320.181" stroke="#343A40" stroke-width="2" stroke-miterlimit="10" stroke-linecap="round"/>
</svg>
