<svg width="256" height="293" viewBox="0 0 256 293" fill="none" xmlns="http://www.w3.org/2000/svg">
<path d="M106.912 7.88808C106.912 7.88808 5.89034 167.034 17.0429 181.124C28.1812 195.237 170.447 291.377 182.994 284.976C195.54 278.574 284.532 120.438 279.539 110.203C274.561 99.9455 117.428 0.215962 106.912 7.88808Z" fill="white"/>
<path d="M235.235 124.127C233.839 120.777 231.242 117.977 228.071 115.993C209.611 104.346 128.977 54.6151 118.861 67.0768C108.017 80.4479 247.27 153.244 235.235 124.127Z" fill="#7952B3"/>
<path d="M205.33 177.343C204.022 173.953 201.476 171.122 198.362 169.046C180.16 156.988 100.662 105.493 90.2631 117.746C79.1282 130.872 216.746 206.739 205.353 177.357L205.33 177.343Z" fill="#7952B3"/>
<path d="M173.241 236.431C172.244 232.95 169.975 229.879 167.07 227.521C150.074 213.838 75.7147 155.146 64.2185 166.364C51.9089 178.373 181.861 266.744 173.241 236.431Z" fill="#7952B3"/>
</svg>
