<svg width="353" height="345" viewBox="0 0 353 345" fill="none" xmlns="http://www.w3.org/2000/svg">
<path d="M153.064 317.894C223.313 323.384 297.529 274.45 291.189 205.349C280.666 91.0969 147.043 73.3495 111.7 159.635C87.2464 219.363 164.511 269.602 202.541 213.172" stroke="white" stroke-width="16" stroke-miterlimit="10" stroke-linecap="round"/>
<path d="M35.9169 155.542C14.0665 218.312 60.5611 282.391 86.8148 289.548" stroke="#FFC107" stroke-width="16" stroke-miterlimit="10" stroke-linecap="round"/>
<path d="M152.226 30.4485C152.226 30.4485 101.026 45.5258 66.2444 86.8225" stroke="#7952B3" stroke-width="16" stroke-miterlimit="10" stroke-linecap="round"/>
<path d="M180.714 167.33C180.714 167.33 195.793 58.2617 247.48 35.5937C299.168 12.9257 228.383 149.305 245.15 168.293C261.916 187.281 304.761 118.696 324.825 158.352C344.889 198.009 237.461 207.765 246.985 239.661C256.509 271.556 298.917 281.116 298.917 281.116" stroke="#343A40" stroke-width="2" stroke-miterlimit="10" stroke-linecap="round"/>
</svg>
