<svg width="329" height="292" viewBox="0 0 329 292" fill="none" xmlns="http://www.w3.org/2000/svg">
<path d="M307.187 165.322C307.187 165.322 121.059 63.5053 110.727 88.9172C100.396 114.329 134.414 349.166 160.83 332.103C187.246 315.039 333.704 185.67 307.187 165.322Z" fill="white"/>
<path d="M193.013 236.104C193.013 236.104 140.964 126.475 127.658 134.779C114.352 143.084 51.2638 263.248 69.2312 264.209C87.1986 265.17 198.455 254.429 192.99 236.119L193.013 236.104Z" stroke="#343A40" stroke-width="2" stroke-miterlimit="10" stroke-linecap="round"/>
<path d="M281.776 262.248C281.776 262.248 365.502 174.435 352.994 164.972C340.485 155.509 205.716 139.601 211.22 156.722C216.761 173.852 266.615 273.882 281.776 262.248Z" fill="#FFC107"/>
</svg>
