<svg width="208" height="272" viewBox="0 0 208 272" fill="none" xmlns="http://www.w3.org/2000/svg">
<path d="M-15.7686 178.78C11.9913 297.773 192.163 283.407 198.748 187.192C205.46 88.8977 108.694 91.6701 97.6026 140.219" stroke="#7952B3" stroke-width="16" stroke-miterlimit="10" stroke-linecap="round"/>
<path d="M126.686 199.605C100.375 217.594 9.91145 195.383 45.2021 96.5848C77.2157 6.95427 188.822 44.0667 192.635 45.6104" stroke="white" stroke-width="16" stroke-miterlimit="10" stroke-linecap="round"/>
<path d="M-40.7869 120.749C-40.7869 120.749 -49.2314 38.0809 40.1925 1" stroke="#343A40" stroke-width="2" stroke-miterlimit="10" stroke-linecap="round"/>
<path d="M7.54894 54.9358C7.54894 54.9358 -22.385 103.453 -6.75629 127.522C8.8409 151.592 49.8347 81.3367 47.2194 55.9755C44.6041 30.6143 22.4844 33.8277 7.54894 54.9358Z" fill="#FFC107"/>
<path d="M105.386 251.02C87.8979 252.784 72.8994 245.885 71.8595 235.614C70.8197 225.344 84.1798 215.609 101.636 213.845C119.124 212.081 134.122 218.98 135.162 229.251C136.202 239.521 122.842 249.256 105.386 251.02Z" fill="#FFC107"/>
</svg>
