<svg width="227" height="307" viewBox="0 0 227 307" fill="none" xmlns="http://www.w3.org/2000/svg">
<path d="M207.448 49.1909C207.448 49.1909 93.4644 3.3185 50.9413 115.345C8.42991 227.348 160.603 290.593 207.877 217.953C255.151 145.313 184.271 72.2127 122.913 106.797C113.168 112.3 106.808 120.02 103.421 128.465" stroke="white" stroke-width="16" stroke-miterlimit="10" stroke-linecap="round"/>
<path d="M137.245 241.736C151.922 248.873 169.605 242.763 176.741 228.088C183.877 213.413 177.763 195.731 163.086 188.594C148.409 181.457 130.726 187.567 123.59 202.242C116.454 216.917 122.568 234.599 137.245 241.736Z" fill="#7952B3"/>
<path d="M13.0521 224.923C13.0521 224.923 17.8284 180.975 54.0773 191.683C90.3261 202.391 94.9432 192.897 121.046 167.614C147.16 142.307 174.139 194.809 198.601 171.484C223.063 148.159 223.262 115.102 265.129 132.675" stroke="#343A40" stroke-width="2" stroke-miterlimit="10" stroke-linecap="round"/>
</svg>
