<svg width="195" height="242" viewBox="0 0 195 242" fill="none" xmlns="http://www.w3.org/2000/svg">
<path d="M214.373 162.052C214.373 162.052 150.065 48.9958 137.87 51.2342C125.666 53.4566 21.0461 109.056 20.8883 118.774C20.7306 128.491 88.3147 233.888 96.1678 234.157C104.03 234.441 215.647 170.943 214.373 162.052Z" fill="white"/>
<path d="M103.075 107.663C87.3184 116.76 81.9187 136.906 91.0143 152.66C100.11 168.414 120.257 173.811 136.013 164.714C151.77 155.616 157.169 135.471 148.074 119.716C138.978 103.962 118.832 98.5658 103.075 107.663Z" fill="#7952B3"/>
<path d="M105.122 63.2531C111.729 80.2019 130.828 88.5837 147.779 81.9743C164.73 75.3649 173.115 56.2671 166.507 39.3183C159.9 22.3694 140.801 13.9876 123.85 20.597C106.899 27.2064 98.5142 46.3042 105.122 63.2531Z" stroke="#343A40" stroke-width="2" stroke-miterlimit="10" stroke-linecap="round"/>
</svg>
