<svg width="348" height="254" viewBox="0 0 348 254" fill="none" xmlns="http://www.w3.org/2000/svg">
<path d="M145.546 181.529C167.29 151.385 160.476 109.325 130.328 87.5852C100.18 65.8451 58.1137 72.6573 36.3701 102.801C14.6266 132.944 21.4399 175.004 51.588 196.744C81.7362 218.484 123.803 211.672 145.546 181.529Z" fill="white"/>
<path d="M87.0557 140.146C99.7855 281.57 294.766 270.102 307.528 168.185C320.257 66.2358 198.977 21.4364 177.299 96.4172C161.26 151.928 304.03 200.603 339.447 31.6123" stroke="#FFC107" stroke-width="16" stroke-miterlimit="10" stroke-linecap="round"/>
<path d="M124.866 57.9186C126.158 52.7203 166.459 -26.5767 271.763 11.1343" stroke="#343A40" stroke-width="2" stroke-miterlimit="10" stroke-linecap="round"/>
<path d="M23.8154 205.391C23.8154 205.391 41.3977 229.461 82.1395 232.233" stroke="#343A40" stroke-width="2" stroke-miterlimit="10" stroke-linecap="round"/>
</svg>
