<svg width="232" height="253" viewBox="0 0 232 253" fill="none" xmlns="http://www.w3.org/2000/svg">
<path d="M24.3398 165.451C50.0185 275.523 216.682 262.234 222.774 173.232C228.982 82.3076 139.471 84.8721 129.211 129.781" stroke="#7952B3" stroke-width="16" stroke-miterlimit="10" stroke-linecap="round"/>
<path d="M156.113 184.715C131.775 201.356 48.0937 180.81 80.7385 89.4191C110.352 6.50845 213.591 40.8385 217.118 42.2664" stroke="white" stroke-width="16" stroke-miterlimit="10" stroke-linecap="round"/>
<path d="M1.19714 111.771C1.19714 111.771 -6.61426 35.3008 76.1053 1" stroke="#343A40" stroke-width="2" stroke-miterlimit="10" stroke-linecap="round"/>
<path d="M45.9072 50.8922C45.9072 50.8922 18.2175 95.7718 32.6745 118.037C47.1023 140.302 85.0227 75.3137 82.6035 51.8539C80.1843 28.3941 59.723 31.3666 45.9072 50.8922Z" fill="#FFC107"/>
<path d="M136.412 232.275C120.235 233.907 106.361 227.525 105.399 218.024C104.437 208.524 116.796 199.519 132.943 197.887C149.12 196.255 162.994 202.637 163.956 212.137C164.918 221.638 152.559 230.643 136.412 232.275Z" fill="#FFC107"/>
</svg>
