<svg width="27" height="27" viewBox="0 0 27 27" fill="none" xmlns="http://www.w3.org/2000/svg">
<path fill-rule="evenodd" clip-rule="evenodd" d="M13.0889 2.24939C10.1445 2.24939 9.77593 2.2625 8.61921 2.31496C7.46574 2.36852 6.67761 2.55322 5.98814 2.82316C5.2645 3.09731 4.60891 3.52735 4.06714 4.08327C3.51573 4.62948 3.08916 5.29038 2.81719 6.01989C2.54942 6.71498 2.36621 7.50951 2.31309 8.67236C2.25997 9.83848 2.24805 10.2101 2.24805 13.1784C2.24805 16.1467 2.25997 16.5183 2.31309 17.6844C2.36621 18.8472 2.54942 19.6418 2.81719 20.3369C3.08919 21.0664 3.51575 21.7273 4.06714 22.2735C4.60896 22.8294 5.26453 23.2594 5.98814 23.5336C6.67761 23.8036 7.46574 23.9883 8.61921 24.0418C9.77593 24.0943 10.1445 24.1074 13.0889 24.1074C16.0333 24.1074 16.4018 24.0943 17.5586 24.0418C18.712 23.9883 19.5002 23.8036 20.1896 23.5336C20.9133 23.2594 21.5688 22.8294 22.1106 22.2735C22.6621 21.7273 23.0886 21.0664 23.3606 20.3369C23.6284 19.6418 23.8116 18.8472 23.8647 17.6844C23.9167 16.5183 23.9297 16.1467 23.9297 13.1784C23.9297 10.2101 23.9167 9.83848 23.8647 8.67236C23.8116 7.50951 23.6284 6.71498 23.3606 6.01989C23.0886 5.29038 22.6621 4.62948 22.1106 4.08327C21.5689 3.52735 20.9133 3.09731 20.1896 2.82316C19.5002 2.55322 18.712 2.36852 17.5586 2.31496C16.4018 2.2625 16.0333 2.24939 13.0889 2.24939ZM13.0889 4.21879C15.9834 4.21879 16.326 4.22972 17.4686 4.28218C18.5267 4.33136 19.1001 4.50841 19.4828 4.65814C19.988 4.85705 20.3501 5.09421 20.7295 5.47563C21.1089 5.85814 21.3431 6.22317 21.5404 6.73246C21.6878 7.11826 21.8656 7.6964 21.9133 8.76198C21.9654 9.91499 21.9762 10.2592 21.9762 13.1784C21.9762 16.0964 21.9654 16.4418 21.9133 17.5937C21.8645 18.6604 21.6878 19.2385 21.5404 19.6243C21.3666 20.099 21.0895 20.5285 20.7295 20.8811C20.3501 21.2637 19.988 21.4997 19.4828 21.6986C19.1001 21.8473 18.5267 22.0265 17.4697 22.0746C16.327 22.127 15.9845 22.138 13.0889 22.138C10.1944 22.138 9.85073 22.127 8.70919 22.0746C7.65112 22.0254 7.07764 21.8473 6.69496 21.6986C6.22402 21.5235 5.79801 21.2441 5.44826 20.8811C5.08819 20.5285 4.8111 20.0991 4.63737 19.6243C4.48885 19.2385 4.31214 18.6604 4.26444 17.5948C4.21241 16.4418 4.20157 16.0975 4.20157 13.1784C4.20157 10.2603 4.21241 9.91499 4.26444 8.76307C4.31323 7.6964 4.48885 7.11826 4.63737 6.73246C4.83467 6.22317 5.06992 5.85814 5.44826 5.47563C5.82769 5.09311 6.18978 4.85705 6.69496 4.65814C7.07764 4.50841 7.65112 4.33027 8.7081 4.28218C9.85181 4.22972 10.1933 4.21879 13.0889 4.21879ZM13.0889 16.821C12.1306 16.821 11.2115 16.4372 10.5339 15.7541C9.85632 15.071 9.47564 14.1445 9.47564 13.1784C9.47564 12.2123 9.85632 11.2858 10.5339 10.6027C11.2115 9.91953 12.1306 9.53575 13.0889 9.53575C14.0472 9.53575 14.9662 9.91953 15.6438 10.6027C16.3215 11.2858 16.7021 12.2123 16.7021 13.1784C16.7021 14.1445 16.3215 15.071 15.6438 15.7541C14.9662 16.4372 14.0472 16.821 13.0889 16.821ZM13.0889 7.56634C12.3578 7.56634 11.634 7.7115 10.9586 7.99354C10.2832 8.27557 9.66951 8.68895 9.15259 9.21007C8.63566 9.7312 8.22562 10.3499 7.94586 11.0307C7.6661 11.7116 7.52212 12.4414 7.52212 13.1784C7.52212 13.9154 7.6661 14.6451 7.94586 15.326C8.22562 16.0069 8.63566 16.6256 9.15259 17.1467C9.66951 17.6678 10.2832 18.0812 10.9586 18.3632C11.634 18.6453 12.3578 18.7904 13.0889 18.7904C14.5653 18.7904 15.9812 18.1992 17.0252 17.1467C18.0692 16.0942 18.6557 14.6668 18.6557 13.1784C18.6557 11.69 18.0692 10.2625 17.0252 9.21007C15.9812 8.15761 14.5653 7.56634 13.0889 7.56634ZM20.1766 7.34449C20.1766 7.51671 20.143 7.68725 20.0776 7.84637C20.0122 8.00548 19.9164 8.15006 19.7956 8.27184C19.6748 8.39362 19.5314 8.49023 19.3736 8.55614C19.2157 8.62204 19.0466 8.65597 18.8757 8.65597C18.7049 8.65597 18.5357 8.62204 18.3779 8.55614C18.2201 8.49023 18.0767 8.39362 17.9559 8.27184C17.8351 8.15006 17.7392 8.00548 17.6739 7.84637C17.6085 7.68725 17.5748 7.51671 17.5748 7.34449C17.5748 6.99666 17.7119 6.66308 17.9559 6.41713C18.1998 6.17118 18.5307 6.03301 18.8757 6.03301C19.2207 6.03301 19.5516 6.17118 19.7956 6.41713C20.0396 6.66308 20.1766 6.99666 20.1766 7.34449Z" fill="#EDFCFF"/>
</svg>
