<svg width="59" height="31" viewBox="0 0 59 31" fill="none" xmlns="http://www.w3.org/2000/svg">
<rect width="59" height="31" rx="15.5" fill="#FBE7E8"/>
<path d="M13.1309 19.0508C13.8809 18.7734 14.5215 18.4219 15.0527 17.9961C15.5879 17.5742 15.9941 17.1133 16.2715 16.6133C16.5527 16.1133 16.6934 15.6055 16.6934 15.0898C16.6934 14.2344 16.2363 13.8066 15.3223 13.8066H12.4102V10.2441H13.4883V12.8105H15.4336C17 12.8105 17.7832 13.5078 17.7832 14.9023C17.7832 15.6211 17.6113 16.3105 17.2676 16.9707C16.9238 17.6309 16.4395 18.2246 15.8145 18.752C15.0723 19.3848 14.1777 19.8887 13.1309 20.2637V19.0508ZM20.1094 17.6387L19.6406 20H18.5039L18.9961 17.6621C19.1367 16.9902 19.2656 16.5176 19.3828 16.2441C19.5 15.9668 19.6465 15.7422 19.8223 15.5703C20.002 15.3984 20.2422 15.252 20.543 15.1309L18.8496 12.8105H20.1797L22.8223 16.4492C23.1152 16.1758 23.3477 15.8457 23.5195 15.459C23.6953 15.0684 23.8105 14.6211 23.8652 14.1172L24 12.8105H25.1133L24.9785 14.0938C24.9355 14.5234 24.8574 14.9004 24.7441 15.2246C24.666 15.4473 24.5723 15.6602 24.4629 15.8633C24.3535 16.0625 24.2129 16.2695 24.041 16.4844C23.873 16.6992 23.6543 16.9395 23.3848 17.2051L25.5 20H24.1289L21.0352 15.7988C20.7227 15.9512 20.5 16.2148 20.3672 16.5898C20.3281 16.6875 20.2871 16.8242 20.2441 17C20.2051 17.1758 20.1602 17.3887 20.1094 17.6387ZM32.3086 19.2734C32.0391 19.4531 31.7031 19.5996 31.3008 19.7129C30.9023 19.8262 30.4023 19.9102 29.8008 19.9648C29.1992 20.0195 28.4551 20.0508 27.5684 20.0586L26.1973 12.8105H27.3164L28.0371 16.5078L28.4648 16.4258C28.6992 16.3711 28.8926 16.3008 29.0449 16.2148C29.1973 16.125 29.3184 16 29.4082 15.8398C29.4824 15.7148 29.5391 15.5605 29.5781 15.377C29.6172 15.1934 29.6465 14.9746 29.666 14.7207L29.8125 12.8105H30.9258L30.7441 14.7324C30.7168 15.0566 30.6836 15.3379 30.6445 15.5762C30.6055 15.8105 30.5586 16 30.5039 16.1445C30.4062 16.4375 30.2598 16.6641 30.0645 16.8242C29.8691 16.9805 29.5449 17.1191 29.0918 17.2402L28.2129 17.4453L28.5 18.957H28.6406C29.4258 18.957 30.0547 18.9121 30.5273 18.8223C31 18.7285 31.373 18.584 31.6465 18.3887C31.8301 18.2559 31.9844 18.0918 32.1094 17.8965C32.2344 17.7012 32.3398 17.4434 32.4258 17.123C32.5117 16.8027 32.584 16.3906 32.6426 15.8867L33.0117 12.8105H34.1426L33.7676 15.8457C33.6895 16.5254 33.5879 17.0859 33.4629 17.5273C33.3379 17.9648 33.1816 18.3203 32.9941 18.5938C32.8105 18.8633 32.582 19.0898 32.3086 19.2734ZM36.7617 12.8105V20H35.6836V12.8105H36.7617ZM42.3398 12.6934C43.2852 12.6934 43.9746 12.9824 44.4082 13.5605C44.8457 14.1348 45.0645 15.0488 45.0645 16.3027V20H41.5371V19.0039H43.9746V16.4375C43.9746 15.4805 43.8516 14.7852 43.6055 14.3516C43.3594 13.918 42.9414 13.7012 42.3516 13.7012C41.8242 13.7012 41.3906 13.9395 41.0508 14.416C40.707 14.9004 40.3926 15.7422 40.1074 16.9414L39.375 20H38.2148L39.0176 16.8535C39.1074 16.4863 39.1992 16.1543 39.293 15.8574C39.3867 15.5605 39.4785 15.2969 39.5684 15.0664L38.1035 12.8105H39.375L40.1074 14C40.4121 13.5391 40.7383 13.207 41.0859 13.0039C41.4336 12.7969 41.8516 12.6934 42.3398 12.6934Z" fill="#A30D11"/>
</svg>
