<svg width="133" height="19" viewBox="0 0 133 19" fill="none" xmlns="http://www.w3.org/2000/svg">
<path d="M5.30725 14.0156C5.13017 14.5417 4.84892 14.9219 4.4635 15.1562C4.07808 15.3854 3.47131 15.5 2.64319 15.5H2.55725V14.1719H2.69006C3.04944 14.1719 3.3359 14.1042 3.54944 13.9688C3.75777 13.8333 3.90621 13.6276 3.99475 13.3516C4.08329 13.0703 4.12756 12.6458 4.12756 12.0781V7.24219H2.64319V5.91406H7.82288C9.26038 5.91406 10.2916 6.22135 10.9166 6.83594C11.5416 7.44531 11.8541 8.46094 11.8541 9.88281V15.5H10.4166V9.86719C10.4166 8.90885 10.2213 8.23177 9.83069 7.83594C9.44527 7.4401 8.77079 7.24219 7.80725 7.24219H5.56506V11.7891C5.56506 12.7474 5.47913 13.4896 5.30725 14.0156ZM15.9401 5.91406V15.5H14.5026V5.91406H15.9401ZM19.9557 12.3516L19.3307 15.5H17.8151L18.4713 12.3828C18.6588 11.487 18.8307 10.8568 18.9869 10.4922C19.1432 10.1224 19.3385 9.82292 19.5729 9.59375C19.8125 9.36458 20.1328 9.16927 20.5338 9.00781L18.276 5.91406H20.0494L23.5729 10.7656C23.9635 10.401 24.2734 9.96094 24.5026 9.44531C24.7369 8.92448 24.8906 8.32812 24.9635 7.65625L25.1432 5.91406H26.6276L26.4479 7.625C26.3906 8.19792 26.2864 8.70052 26.1354 9.13281C26.0312 9.42969 25.9062 9.71354 25.7604 9.98438C25.6145 10.25 25.427 10.526 25.1979 10.8125C24.9739 11.099 24.6823 11.4193 24.3229 11.7734L27.1432 15.5H25.3151L21.1901 9.89844C20.7734 10.1016 20.4765 10.4531 20.2994 10.9531C20.2474 11.0833 20.1927 11.2656 20.1354 11.5C20.0833 11.7344 20.0234 12.0182 19.9557 12.3516ZM30.1432 5.91406V15.5H28.7057V5.91406H30.1432ZM34.2994 5.91406V15.5H32.8619V5.91406H34.2994ZM37.1666 14.2344C38.1666 13.8646 39.0208 13.3958 39.7291 12.8281C40.4427 12.2656 40.9843 11.651 41.3541 10.9844C41.7291 10.3177 41.9166 9.64062 41.9166 8.95312C41.9166 7.8125 41.3073 7.24219 40.0885 7.24219H36.2057V2.49219H37.6432V5.91406H40.2369C42.3255 5.91406 43.3698 6.84375 43.3698 8.70312C43.3698 9.66146 43.1406 10.5807 42.6823 11.4609C42.2239 12.3411 41.5781 13.1328 40.7448 13.8359C39.7552 14.6797 38.5625 15.3516 37.1666 15.8516V14.2344ZM53.0104 9.88281V15.5H51.5651V9.86719C51.5651 8.90885 51.3698 8.23177 50.9791 7.83594C50.5937 7.4401 49.9244 7.24219 48.9713 7.24219H45.3307V5.91406H48.9948C49.9531 5.91406 50.7265 6.04948 51.3151 6.32031C51.9036 6.58594 52.3333 7.01042 52.6041 7.59375C52.875 8.17188 53.0104 8.9349 53.0104 9.88281ZM46.9244 9.27344V15.5H45.4869V9.27344H46.9244ZM62.0104 14.0156C61.8333 14.5417 61.552 14.9219 61.1666 15.1562C60.7812 15.3854 60.1744 15.5 59.3463 15.5H59.2604V14.1719H59.3932C59.7526 14.1719 60.039 14.1042 60.2526 13.9688C60.4609 13.8333 60.6093 13.6276 60.6979 13.3516C60.7864 13.0703 60.8307 12.6458 60.8307 12.0781V7.24219H59.3463V5.91406H64.526C65.9635 5.91406 66.9948 6.22135 67.6198 6.83594C68.2448 7.44531 68.5573 8.46094 68.5573 9.88281V15.5H67.1198V9.86719C67.1198 8.90885 66.9244 8.23177 66.5338 7.83594C66.1484 7.4401 65.4739 7.24219 64.5104 7.24219H62.2682V11.7891C62.2682 12.7474 62.1823 13.4896 62.0104 14.0156ZM75.9244 5.75781C77.1849 5.75781 78.1041 6.14323 78.6823 6.91406C79.2656 7.67969 79.5573 8.89844 79.5573 10.5703V15.5H74.8541V14.1719H78.1041V10.75C78.1041 9.47396 77.9401 8.54688 77.6119 7.96875C77.2838 7.39062 76.7265 7.10156 75.9401 7.10156C75.2369 7.10156 74.6588 7.41927 74.2057 8.05469C73.7474 8.70052 73.3281 9.82292 72.9479 11.4219L71.9713 15.5H70.4244L71.4948 11.3047C71.6145 10.8151 71.7369 10.3724 71.8619 9.97656C71.9869 9.58073 72.1093 9.22917 72.2291 8.92188L70.276 5.91406H71.9713L72.9479 7.5C73.3541 6.88542 73.789 6.44271 74.2526 6.17188C74.7161 5.89583 75.2734 5.75781 75.9244 5.75781ZM83.3151 5.91406V10.9531H81.8776V5.91406H83.3151ZM93.5494 14.5312C93.1901 14.7708 92.7421 14.9661 92.2057 15.1172C91.6744 15.2682 91.0078 15.3802 90.2057 15.4531C89.4036 15.526 88.4114 15.5677 87.2291 15.5781L85.401 5.91406H86.8932L87.8541 10.8438L88.4244 10.7344C88.7369 10.6615 88.9948 10.5677 89.1979 10.4531C89.401 10.3333 89.5625 10.1667 89.6823 9.95312C89.7812 9.78646 89.8567 9.58073 89.9088 9.33594C89.9609 9.09115 90 8.79948 90.026 8.46094L90.2213 5.91406H91.7057L91.4635 8.47656C91.427 8.90885 91.3828 9.28385 91.3307 9.60156C91.2786 9.91406 91.2161 10.1667 91.1432 10.3594C91.013 10.75 90.8177 11.0521 90.5573 11.2656C90.2968 11.474 89.8645 11.6589 89.2604 11.8203L88.0885 12.0938L88.4713 14.1094H88.6588C89.7057 14.1094 90.5442 14.0495 91.1744 13.9297C91.8046 13.8047 92.302 13.612 92.6666 13.3516C92.9114 13.1745 93.1171 12.9557 93.2838 12.6953C93.4505 12.4349 93.5911 12.0911 93.7057 11.6641C93.8203 11.237 93.9166 10.6875 93.9948 10.0156L94.4869 5.91406H95.9948L95.4948 9.96094C95.3906 10.8672 95.2552 11.6146 95.0885 12.2031C94.9218 12.7865 94.7135 13.2604 94.4635 13.625C94.2187 13.9844 93.914 14.2865 93.5494 14.5312ZM103.956 9.88281V15.5H102.51V9.86719C102.51 8.91927 102.318 8.24479 101.932 7.84375C101.552 7.44271 100.883 7.24219 99.9244 7.24219H96.9948V5.91406H99.9401C100.898 5.91406 101.672 6.04948 102.26 6.32031C102.849 6.58594 103.279 7.01042 103.549 7.59375C103.82 8.17188 103.956 8.9349 103.956 9.88281Z" fill="white"/>
<path d="M115.318 17.5H116.693" stroke="white" stroke-width="2" stroke-linecap="round"/>
<path d="M120.363 17.5H131.828" stroke="white" stroke-width="2" stroke-linecap="round"/>
<path d="M115.318 11.1006H116.693" stroke="white" stroke-width="2" stroke-linecap="round"/>
<path d="M120.363 11.1006H131.828" stroke="white" stroke-width="2" stroke-linecap="round"/>
<path d="M123.115 4.7002H131.828" stroke="white" stroke-width="2" stroke-linecap="round"/>
<path d="M115.318 4.70001L117.152 6.83335L121.738 1.5" stroke="white" stroke-width="2" stroke-linecap="round" stroke-linejoin="round"/>
</svg>
