<svg width="160" height="113" viewBox="0 0 160 113" fill="none" xmlns="http://www.w3.org/2000/svg">
<rect width="160" height="113" fill="#FFC107"/>
<path d="M51.569 43.52V68H48.748V43.52H51.569ZM64.1944 68.3825C62.5369 68.3825 61.0826 67.988 59.8316 67.1991C58.5884 66.4102 57.6162 65.3066 56.915 63.8881C56.2217 62.4697 55.8751 60.8122 55.8751 58.9156C55.8751 57.0031 56.2217 55.3337 56.915 53.9073C57.6162 52.4809 58.5884 51.3732 59.8316 50.5843C61.0826 49.7954 62.5369 49.4009 64.1944 49.4009C65.8519 49.4009 67.3023 49.7954 68.5454 50.5843C69.7965 51.3732 70.7687 52.4809 71.4619 53.9073C72.1632 55.3337 72.5138 57.0031 72.5138 58.9156C72.5138 60.8122 72.1632 62.4697 71.4619 63.8881C70.7687 65.3066 69.7965 66.4102 68.5454 67.1991C67.3023 67.988 65.8519 68.3825 64.1944 68.3825ZM64.1944 65.8484C65.4535 65.8484 66.4894 65.5257 67.3023 64.8802C68.1151 64.2348 68.7167 63.3861 69.1072 62.3342C69.4976 61.2823 69.6929 60.1428 69.6929 58.9156C69.6929 57.6884 69.4976 56.5449 69.1072 55.4851C68.7167 54.4252 68.1151 53.5686 67.3023 52.9152C66.4894 52.2617 65.4535 51.935 64.1944 51.935C62.9354 51.935 61.8994 52.2617 61.0866 52.9152C60.2738 53.5686 59.6722 54.4252 59.2817 55.4851C58.8912 56.5449 58.696 57.6884 58.696 58.9156C58.696 60.1428 58.8912 61.2823 59.2817 62.3342C59.6722 63.3861 60.2738 64.2348 61.0866 64.8802C61.8994 65.5257 62.9354 65.8484 64.1944 65.8484ZM84.2309 75.2675C82.8682 75.2675 81.6968 75.0922 80.7166 74.7416C79.7365 74.3989 78.9197 73.9447 78.2663 73.3789C77.6208 72.8211 77.1068 72.2234 76.7243 71.5859L78.9715 70.0081C79.2265 70.3428 79.5492 70.7253 79.9397 71.1556C80.3302 71.5939 80.8641 71.9724 81.5414 72.2912C82.2267 72.6179 83.1232 72.7812 84.2309 72.7812C85.7131 72.7812 86.9363 72.4227 87.9005 71.7055C88.8647 70.9883 89.3468 69.8647 89.3468 68.3347V64.6053H89.1077C88.9006 64.94 88.6057 65.3544 88.2232 65.8484C87.8487 66.3345 87.3068 66.7688 86.5976 67.1513C85.8963 67.5259 84.9481 67.7131 83.7527 67.7131C82.2706 67.7131 80.9398 67.3625 79.7604 66.6613C78.589 65.96 77.6606 64.94 76.9753 63.6012C76.298 62.2625 75.9593 60.6369 75.9593 58.7244C75.9593 56.8437 76.29 55.2062 76.9514 53.8116C77.6128 52.4091 78.5332 51.3254 79.7126 50.5604C80.892 49.7874 82.2546 49.4009 83.8006 49.4009C84.9959 49.4009 85.9442 49.6002 86.6454 49.9986C87.3546 50.3891 87.8965 50.8353 88.271 51.3373C88.6535 51.8314 88.9484 52.2378 89.1556 52.5566H89.4424V49.64H92.1677V68.5259C92.1677 70.1037 91.8092 71.3867 91.092 72.3748C90.3827 73.3709 89.4265 74.1001 88.2232 74.5623C87.0279 75.0324 85.6971 75.2675 84.2309 75.2675ZM84.1352 65.1791C85.2668 65.1791 86.2231 64.9201 87.004 64.4021C87.7849 63.8841 88.3786 63.1391 88.785 62.1669C89.1914 61.1947 89.3946 60.0312 89.3946 58.6766C89.3946 57.3537 89.1954 56.1863 88.797 55.1743C88.3985 54.1623 87.8088 53.3694 87.0279 52.7956C86.247 52.2219 85.2827 51.935 84.1352 51.935C82.9399 51.935 81.9438 52.2378 81.147 52.8434C80.3581 53.4491 79.7644 54.2619 79.3659 55.2819C78.9755 56.3019 78.7802 57.4334 78.7802 58.6766C78.7802 59.9516 78.9795 61.0791 79.3779 62.0593C79.7843 63.0315 80.382 63.7965 81.1709 64.3543C81.9677 64.9041 82.9559 65.1791 84.1352 65.1791ZM104.79 68.3825C103.133 68.3825 101.678 67.988 100.427 67.1991C99.1842 66.4102 98.212 65.3066 97.5108 63.8881C96.8175 62.4697 96.4709 60.8122 96.4709 58.9156C96.4709 57.0031 96.8175 55.3337 97.5108 53.9073C98.212 52.4809 99.1842 51.3732 100.427 50.5843C101.678 49.7954 103.133 49.4009 104.79 49.4009C106.448 49.4009 107.898 49.7954 109.141 50.5843C110.392 51.3732 111.364 52.4809 112.058 53.9073C112.759 55.3337 113.11 57.0031 113.11 58.9156C113.11 60.8122 112.759 62.4697 112.058 63.8881C111.364 65.3066 110.392 66.4102 109.141 67.1991C107.898 67.988 106.448 68.3825 104.79 68.3825ZM104.79 65.8484C106.049 65.8484 107.085 65.5257 107.898 64.8802C108.711 64.2348 109.313 63.3861 109.703 62.3342C110.093 61.2823 110.289 60.1428 110.289 58.9156C110.289 57.6884 110.093 56.5449 109.703 55.4851C109.313 54.4252 108.711 53.5686 107.898 52.9152C107.085 52.2617 106.049 51.935 104.79 51.935C103.531 51.935 102.495 52.2617 101.682 52.9152C100.87 53.5686 100.268 54.4252 99.8775 55.4851C99.487 56.5449 99.2918 57.6884 99.2918 58.9156C99.2918 60.1428 99.487 61.2823 99.8775 62.3342C100.268 63.3861 100.87 64.2348 101.682 64.8802C102.495 65.5257 103.531 65.8484 104.79 65.8484Z" fill="black"/>
</svg>
