<svg width="48" height="89" viewBox="0 0 48 89" fill="none" xmlns="http://www.w3.org/2000/svg">
<path d="M45.8333 48.6188H1.83333C0.821332 48.6188 0 47.7974 0 46.7854C0 45.7734 0.821332 44.9521 1.83333 44.9521H45.8333C46.8453 44.9521 47.6666 45.7734 47.6666 46.7854C47.6666 47.7974 46.8453 48.6188 45.8333 48.6188Z" fill="black"/>
<path d="M45.8333 77.9524H1.83333C0.821332 77.9524 0 77.1311 0 76.1191C0 75.1071 0.821332 74.2858 1.83333 74.2858H45.8333C46.8453 74.2858 47.6666 75.1071 47.6666 76.1191C47.6666 77.1311 46.8453 77.9524 45.8333 77.9524Z" fill="black"/>
<path d="M23.8333 70.6191C22.8213 70.6191 22 69.7978 22 68.7858V54.1191C22 53.1071 22.8213 52.2858 23.8333 52.2858C24.8453 52.2858 25.6667 53.1071 25.6667 54.1191V68.7858C25.6667 69.7978 24.8453 70.6191 23.8333 70.6191Z" fill="black"/>
<path d="M31.1694 63.2852H16.5028C15.4908 63.2852 14.6694 62.4639 14.6694 61.4519C14.6694 60.4399 15.4908 59.6186 16.5028 59.6186H31.1694C32.1814 59.6186 33.0027 60.4399 33.0027 61.4519C33.0027 62.4639 32.1814 63.2852 31.1694 63.2852Z" fill="black"/>
<path d="M38.5032 19.2855H9.16991C6.13759 19.2855 3.66992 16.8178 3.66992 13.7855V6.45214C3.66992 3.41981 6.13759 0.952148 9.16991 0.952148H38.5032C41.5355 0.952148 44.0032 3.41981 44.0032 6.45214V13.7855C44.0032 16.8178 41.5355 19.2855 38.5032 19.2855ZM9.16991 4.61881C8.15792 4.61881 7.33658 5.44381 7.33658 6.45214V13.7855C7.33658 14.7938 8.15792 15.6188 9.16991 15.6188H38.5032C39.5152 15.6188 40.3365 14.7938 40.3365 13.7855V6.45214C40.3365 5.44381 39.5152 4.61881 38.5032 4.61881H9.16991Z" fill="black"/>
<path d="M38.4999 88.9517H9.16665C4.11399 88.9517 0 84.8413 0 79.785V39.4517C0 32.9984 4.78866 27.6414 11 26.7467V17.4517C11 16.4397 11.8213 15.6184 12.8333 15.6184H34.8333C35.8453 15.6184 36.6666 16.4397 36.6666 17.4517V26.7467C42.8779 27.6414 47.6666 32.9984 47.6666 39.4517V79.785C47.6666 84.8413 43.5526 88.9517 38.4999 88.9517ZM14.6666 19.2851V28.4517C14.6666 29.4637 13.8453 30.2851 12.8333 30.2851C7.78066 30.2851 3.66666 34.3954 3.66666 39.4517V79.785C3.66666 82.8173 6.13433 85.285 9.16665 85.285H38.4999C41.5323 85.285 43.9999 82.8173 43.9999 79.785V39.4517C43.9999 34.3954 39.8859 30.2851 34.8333 30.2851C33.8213 30.2851 33 29.4637 33 28.4517V19.2851H14.6666Z" fill="black"/>
<path d="M20.1634 17.4521C19.1514 17.4521 18.3301 16.6308 18.3301 15.6188V2.78548C18.3301 1.77348 19.1514 0.952148 20.1634 0.952148C21.1754 0.952148 21.9967 1.77348 21.9967 2.78548V15.6188C21.9967 16.6308 21.1754 17.4521 20.1634 17.4521Z" fill="black"/>
<path d="M12.8333 19.2855C11.8213 19.2855 11 18.4641 11 17.4521V2.78548C11 1.77348 11.8213 0.952148 12.8333 0.952148C13.8453 0.952148 14.6667 1.77348 14.6667 2.78548V17.4521C14.6667 18.4641 13.8453 19.2855 12.8333 19.2855Z" fill="black"/>
<path d="M27.5028 19.2855C26.4908 19.2855 25.6694 18.4641 25.6694 17.4521V2.78548C25.6694 1.77348 26.4908 0.952148 27.5028 0.952148C28.5148 0.952148 29.3361 1.77348 29.3361 2.78548V17.4521C29.3361 18.4641 28.5148 19.2855 27.5028 19.2855Z" fill="black"/>
<path d="M34.8333 17.4521C33.8213 17.4521 33 16.6308 33 15.6188V2.78548C33 1.77348 33.8213 0.952148 34.8333 0.952148C35.8453 0.952148 36.6667 1.77348 36.6667 2.78548V15.6188C36.6667 16.6308 35.8453 17.4521 34.8333 17.4521Z" fill="black"/>
</svg>
