<svg width="72" height="96" viewBox="0 0 72 96" fill="none" xmlns="http://www.w3.org/2000/svg">
<path d="M47.9231 29.7003H22.0769C21.4825 29.7003 21 29.1977 21 28.5785C21 27.9593 21.4825 27.4567 22.0769 27.4567H47.9231C48.5175 27.4567 49 27.9593 49 28.5785C49 29.1977 48.5175 29.7003 47.9231 29.7003Z" fill="#12005B"/>
<path d="M47.9231 47.6493H22.0769C21.4825 47.6493 21 47.1467 21 46.5275C21 45.9082 21.4825 45.4057 22.0769 45.4057H47.9231C48.5175 45.4057 49 45.9082 49 46.5275C49 47.1467 48.5175 47.6493 47.9231 47.6493Z" fill="#12005B"/>
<path d="M34.9998 43.1623C34.4053 43.1623 33.9229 42.6597 33.9229 42.0405V33.0661C33.9229 32.4469 34.4053 31.9443 34.9998 31.9443C35.5942 31.9443 36.0767 32.4469 36.0767 33.0661V42.0405C36.0767 42.6597 35.5942 43.1623 34.9998 43.1623Z" fill="#12005B"/>
<path d="M39.3095 38.6745H30.6941C30.0996 38.6745 29.6172 38.1719 29.6172 37.5527C29.6172 36.9335 30.0996 36.4309 30.6941 36.4309H39.3095C39.904 36.4309 40.3864 36.9335 40.3864 37.5527C40.3864 38.1719 39.904 38.6745 39.3095 38.6745Z" fill="#12005B"/>
<path d="M43.6178 11.7516H26.387C24.6058 11.7516 23.1562 10.2417 23.1562 8.38624V3.89907C23.1562 2.04362 24.6058 0.533691 26.387 0.533691H43.6178C45.399 0.533691 46.8486 2.04362 46.8486 3.89907V8.38624C46.8486 10.2417 45.399 11.7516 43.6178 11.7516ZM26.387 2.77728C25.7926 2.77728 25.3101 3.28208 25.3101 3.89907V8.38624C25.3101 9.00323 25.7926 9.50804 26.387 9.50804H43.6178C44.2123 9.50804 44.6947 9.00323 44.6947 8.38624V3.89907C44.6947 3.28208 44.2123 2.77728 43.6178 2.77728H26.387Z" fill="#12005B"/>
<path d="M43.6154 54.3795H26.3846C23.4166 54.3795 21 51.8645 21 48.7706V24.0911C21 20.1424 23.8129 16.8645 27.4615 16.3171V10.6296C27.4615 10.0104 27.944 9.50781 28.5385 9.50781H41.4615C42.056 9.50781 42.5385 10.0104 42.5385 10.6296V16.3171C46.1871 16.8645 49 20.1424 49 24.0911V48.7706C49 51.8645 46.5834 54.3795 43.6154 54.3795ZM29.6154 11.7514V17.3604C29.6154 17.9796 29.1329 18.4822 28.5385 18.4822C25.5705 18.4822 23.1538 20.9972 23.1538 24.0911V48.7706C23.1538 50.626 24.6034 52.136 26.3846 52.136H43.6154C45.3966 52.136 46.8462 50.626 46.8462 48.7706V24.0911C46.8462 20.9972 44.4295 18.4822 41.4615 18.4822C40.8671 18.4822 40.3846 17.9796 40.3846 17.3604V11.7514H29.6154Z" fill="#12005B"/>
<path d="M32.8455 10.6298C32.251 10.6298 31.7686 10.1273 31.7686 9.50804V1.65548C31.7686 1.03625 32.251 0.533691 32.8455 0.533691C33.4399 0.533691 33.9224 1.03625 33.9224 1.65548V9.50804C33.9224 10.1273 33.4399 10.6298 32.8455 10.6298Z" fill="#12005B"/>
<path d="M28.5379 11.7516C27.9434 11.7516 27.4609 11.2491 27.4609 10.6298V1.65548C27.4609 1.03625 27.9434 0.533691 28.5379 0.533691C29.1323 0.533691 29.6148 1.03625 29.6148 1.65548V10.6298C29.6148 11.2491 29.1323 11.7516 28.5379 11.7516Z" fill="#12005B"/>
<path d="M37.156 11.7516C36.5616 11.7516 36.0791 11.2491 36.0791 10.6298V1.65548C36.0791 1.03625 36.5616 0.533691 37.156 0.533691C37.7505 0.533691 38.2329 1.03625 38.2329 1.65548V10.6298C38.2329 11.2491 37.7505 11.7516 37.156 11.7516Z" fill="#12005B"/>
<path d="M41.4607 10.6298C40.8663 10.6298 40.3838 10.1273 40.3838 9.50804V1.65548C40.3838 1.03625 40.8663 0.533691 41.4607 0.533691C42.0552 0.533691 42.5376 1.03625 42.5376 1.65548V9.50804C42.5376 10.1273 42.0552 10.6298 41.4607 10.6298Z" fill="#12005B"/>
<path d="M19.1172 77.9687C21.6572 77.9687 22.9272 79.1887 22.9272 81.6287V86.1887C22.9272 86.2887 22.8922 86.3737 22.8222 86.4437C22.7622 86.5037 22.6822 86.5337 22.5822 86.5337H21.9522C21.8522 86.5337 21.7672 86.5037 21.6972 86.4437C21.6372 86.3737 21.6072 86.2887 21.6072 86.1887V81.7037C21.6072 79.9837 20.7522 79.1237 19.0422 79.1237H17.9472C17.8472 79.7037 17.7722 80.2087 17.7222 80.6387C17.6822 81.0687 17.6622 81.5587 17.6622 82.1087L17.6922 86.1887C17.6922 86.2887 17.6622 86.3737 17.6022 86.4437C17.5422 86.5037 17.4622 86.5337 17.3622 86.5337L15.2772 86.5037C15.1772 86.5037 15.0922 86.4737 15.0222 86.4137C14.9622 86.3437 14.9322 86.2587 14.9322 86.1587V85.7087C14.9322 85.6087 14.9622 85.5287 15.0222 85.4687C15.0922 85.3987 15.1772 85.3637 15.2772 85.3637L16.4172 85.3787V82.1687C16.4172 81.5287 16.4322 80.9937 16.4622 80.5637C16.5022 80.1337 16.5822 79.6537 16.7022 79.1237H15.9072C15.8072 79.1237 15.7222 79.0937 15.6522 79.0337C15.5922 78.9737 15.5622 78.8937 15.5622 78.7937V78.3137C15.5622 78.2137 15.5922 78.1337 15.6522 78.0737C15.7222 78.0037 15.8072 77.9687 15.9072 77.9687H19.1172ZM25.5253 86.5337C25.4253 86.5337 25.3403 86.5037 25.2703 86.4437C25.2103 86.3737 25.1803 86.2887 25.1803 86.1887V78.3137C25.1803 78.2137 25.2103 78.1337 25.2703 78.0737C25.3403 78.0037 25.4253 77.9687 25.5253 77.9687H26.1853C26.2853 77.9687 26.3653 78.0037 26.4253 78.0737C26.4953 78.1337 26.5303 78.2137 26.5303 78.3137V86.1887C26.5303 86.2887 26.4953 86.3737 26.4253 86.4437C26.3653 86.5037 26.2853 86.5337 26.1853 86.5337H25.5253ZM30.042 80.3537C30.052 80.7537 30.102 81.0687 30.192 81.2987C30.282 81.5287 30.432 81.6737 30.642 81.7337L31.212 81.8837C31.292 81.9037 31.352 81.9587 31.392 82.0487C31.442 82.1287 31.467 82.2287 31.467 82.3487V82.6937C31.467 82.8037 31.412 82.8837 31.302 82.9337C31.192 82.9837 31.072 82.9987 30.942 82.9787L30.372 82.8587C29.362 82.6387 28.857 81.7887 28.857 80.3087V78.3137C28.867 78.2037 28.902 78.1187 28.962 78.0587C29.022 77.9987 29.102 77.9687 29.202 77.9687H31.977C33.077 77.9687 33.912 78.2937 34.482 78.9437C35.052 79.5837 35.352 80.4937 35.382 81.6737C35.392 81.7737 35.397 81.9637 35.397 82.2437C35.397 82.5337 35.392 82.7287 35.382 82.8287C35.352 84.0087 35.052 84.9237 34.482 85.5737C33.912 86.2137 33.077 86.5337 31.977 86.5337H29.397C29.297 86.5337 29.212 86.5037 29.142 86.4437C29.082 86.3737 29.052 86.2887 29.052 86.1887V85.6937C29.052 85.5837 29.082 85.4987 29.142 85.4387C29.212 85.3787 29.297 85.3487 29.397 85.3487H31.887C32.587 85.3487 33.127 85.1237 33.507 84.6737C33.887 84.2237 34.092 83.5887 34.122 82.7687C34.142 82.5687 34.152 82.3937 34.152 82.2437C34.152 82.1037 34.142 81.9337 34.122 81.7337C34.102 80.9037 33.902 80.2687 33.522 79.8287C33.142 79.3787 32.597 79.1537 31.887 79.1537H30.042V80.3537ZM37.7421 86.5337C37.6421 86.5337 37.5571 86.5037 37.4871 86.4437C37.4271 86.3737 37.3971 86.2887 37.3971 86.1887V78.3137C37.3971 78.2137 37.4271 78.1337 37.4871 78.0737C37.5571 78.0037 37.6421 77.9687 37.7421 77.9687H38.4021C38.5021 77.9687 38.5821 78.0037 38.6421 78.0737C38.7121 78.1337 38.7471 78.2137 38.7471 78.3137V86.1887C38.7471 86.2887 38.7121 86.3737 38.6421 86.4437C38.5821 86.5037 38.5021 86.5337 38.4021 86.5337H37.7421ZM45.9338 86.5337C45.8338 86.5337 45.7488 86.5037 45.6788 86.4437C45.6188 86.3737 45.5888 86.2887 45.5888 86.1887V81.7037C45.5888 79.9837 44.7288 79.1237 43.0088 79.1237H41.0738C40.9738 79.1237 40.8888 79.0937 40.8188 79.0337C40.7588 78.9737 40.7288 78.8937 40.7288 78.7937V78.3137C40.7288 78.2137 40.7588 78.1337 40.8188 78.0737C40.8888 78.0037 40.9738 77.9687 41.0738 77.9687H43.0988C45.6388 77.9687 46.9088 79.1887 46.9088 81.6287V86.1887C46.9088 86.2887 46.8738 86.3737 46.8038 86.4437C46.7438 86.5037 46.6638 86.5337 46.5638 86.5337H45.9338ZM52.9697 77.9687C55.5097 77.9687 56.7797 79.1887 56.7797 81.6287V86.1887C56.7797 86.2887 56.7447 86.3737 56.6747 86.4437C56.6147 86.5037 56.5347 86.5337 56.4347 86.5337H55.8047C55.7047 86.5337 55.6197 86.5037 55.5497 86.4437C55.4897 86.3737 55.4597 86.2887 55.4597 86.1887V81.7037C55.4597 79.9837 54.6047 79.1237 52.8947 79.1237H51.7997C51.6997 79.7037 51.6247 80.2087 51.5747 80.6387C51.5347 81.0687 51.5147 81.5587 51.5147 82.1087L51.5447 86.1887C51.5447 86.2887 51.5147 86.3737 51.4547 86.4437C51.3947 86.5037 51.3147 86.5337 51.2147 86.5337L49.1297 86.5037C49.0297 86.5037 48.9447 86.4737 48.8747 86.4137C48.8147 86.3437 48.7847 86.2587 48.7847 86.1587V85.7087C48.7847 85.6087 48.8147 85.5287 48.8747 85.4687C48.9447 85.3987 49.0297 85.3637 49.1297 85.3637L50.2697 85.3787V82.1687C50.2697 81.5287 50.2847 80.9937 50.3147 80.5637C50.3547 80.1337 50.4347 79.6537 50.5547 79.1237H49.7597C49.6597 79.1237 49.5747 79.0937 49.5047 79.0337C49.4447 78.9737 49.4147 78.8937 49.4147 78.7937V78.3137C49.4147 78.2137 49.4447 78.1337 49.5047 78.0737C49.5747 78.0037 49.6597 77.9687 49.7597 77.9687H52.9697Z" fill="#465FB9"/>
</svg>
