<svg width="80" height="24" viewBox="0 0 80 24" fill="none" xmlns="http://www.w3.org/2000/svg">
<path d="M11.6491 12.3828V18H3.43813V8.41406H7.63344C9.07094 8.41406 10.0996 8.72135 10.7194 9.33594C11.3392 9.95052 11.6491 10.9661 11.6491 12.3828ZM4.87563 16.6719H10.2038V12.3672C10.2038 11.4193 10.011 10.7448 9.62563 10.3438C9.24542 9.94271 8.57615 9.74219 7.61782 9.74219H4.87563V16.6719ZM15.4069 8.41406V13.4531H13.9694V8.41406H15.4069ZM24.36 12.3828V18H22.9147V12.3672C22.9147 11.4193 22.722 10.7448 22.3366 10.3438C21.9564 9.94271 21.2871 9.74219 20.3288 9.74219H17.3991V8.41406H20.3444C21.3027 8.41406 22.0762 8.54948 22.6647 8.82031C23.2532 9.08594 23.6829 9.51042 23.9538 10.0938C24.2246 10.6719 24.36 11.4349 24.36 12.3828ZM33.6725 16.7656V18H26.2975V16.6719H31.8834L25.7194 8.41406H27.5163L30.4928 12.4609C30.8939 12.2891 31.1855 12.0365 31.3678 11.7031C31.5501 11.3646 31.6725 10.849 31.735 10.1562L31.9147 8.41406H33.3991L33.2428 10.125C33.1751 10.8438 33.0683 11.3958 32.9225 11.7812C32.7767 12.1615 32.5709 12.4766 32.3053 12.7266C32.0397 12.9766 31.6647 13.1979 31.1803 13.3906L33.6725 16.7656ZM37.1569 8.41406V18H35.7194V8.41406H37.1569ZM44.5944 8.25781C45.8548 8.25781 46.7741 8.64323 47.3522 9.41406C47.9355 10.1797 48.2272 11.3984 48.2272 13.0703V18H43.5241V16.6719H46.7741V13.25C46.7741 11.974 46.61 11.0469 46.2819 10.4688C45.9538 9.89062 45.3965 9.60156 44.61 9.60156C43.9069 9.60156 43.3288 9.91927 42.8756 10.5547C42.4173 11.2005 41.998 12.3229 41.6178 13.9219L40.6413 18H39.0944L40.1647 13.8047C40.2845 13.3151 40.4069 12.8724 40.5319 12.4766C40.6569 12.0807 40.7793 11.7292 40.8991 11.4219L38.9459 8.41406H40.6413L41.6178 10C42.0241 9.38542 42.459 8.94271 42.9225 8.67188C43.386 8.39583 43.9433 8.25781 44.5944 8.25781Z" fill="white"/>
<path d="M60 6C60 4.89543 60.8954 4 62 4H65.2856C66.3901 4 67.2856 4.89543 67.2856 6V8.56394C67.2856 9.66851 66.3901 10.5639 65.2856 10.5639H62C60.8954 10.5639 60 9.66851 60 8.56394V6Z" stroke="white" stroke-width="2" stroke-linejoin="round"/>
<path d="M60 16.4542C60 15.3497 60.8954 14.4542 62 14.4542H65.2856C66.3901 14.4542 67.2856 15.3497 67.2856 16.4542V19.0182C67.2856 20.1227 66.3901 21.0182 65.2856 21.0182H62C60.8954 21.0182 60 20.1227 60 19.0182V16.4542Z" stroke="white" stroke-width="2" stroke-linejoin="round"/>
<path d="M71.6062 6C71.6062 4.89543 72.5016 4 73.6062 4H76.8918C77.9963 4 78.8918 4.89543 78.8918 6V8.56394C78.8918 9.66851 77.9963 10.5639 76.8918 10.5639H73.6062C72.5016 10.5639 71.6062 9.66851 71.6062 8.56394V6Z" stroke="white" stroke-width="2" stroke-linejoin="round"/>
<path d="M71.604 16.4542C71.604 15.3497 72.4994 14.4542 73.604 14.4542H76.8896C77.9941 14.4542 78.8896 15.3497 78.8896 16.4542V19.0182C78.8896 20.1227 77.9941 21.0182 76.8896 21.0182H73.604C72.4994 21.0182 71.604 20.1227 71.604 19.0182V16.4542Z" stroke="white" stroke-width="2" stroke-linejoin="round"/>
</svg>
