<svg width="44" height="44" viewBox="0 0 44 44" fill="none" xmlns="http://www.w3.org/2000/svg">
<circle cx="21.9082" cy="22.3945" r="21.5" fill="white"/>
<path d="M17.1636 25.4409C15.9257 26.178 12.6799 27.6831 14.6568 29.5665C15.6225 30.4865 16.698 31.1445 18.0502 31.1445H25.7662C27.1184 31.1445 28.1939 30.4865 29.1596 29.5665C31.1365 27.6831 27.8907 26.178 26.6528 25.4409C23.7499 23.7124 20.0665 23.7124 17.1636 25.4409Z" stroke="#12005B" stroke-width="1.5" stroke-linecap="round" stroke-linejoin="round"/>
<path d="M25.8457 17.582C25.8457 19.7567 24.0828 21.5195 21.9082 21.5195C19.7336 21.5195 17.9707 19.7567 17.9707 17.582C17.9707 15.4074 19.7336 13.6445 21.9082 13.6445C24.0828 13.6445 25.8457 15.4074 25.8457 17.582Z" stroke="#12005B" stroke-width="1.5"/>
</svg>
