<svg width="18" height="20" viewBox="0 0 18 20" fill="none" xmlns="http://www.w3.org/2000/svg">
<path d="M4.16358 13.4409C2.92566 14.178 -0.320103 15.6831 1.65678 17.5665C2.62247 18.4865 3.69801 19.1445 5.05021 19.1445H12.7662C14.1184 19.1445 15.1939 18.4865 16.1596 17.5665C18.1365 15.6831 14.8907 14.178 13.6528 13.4409C10.7499 11.7124 7.06649 11.7124 4.16358 13.4409Z" stroke="#12005B" stroke-width="1.5" stroke-linecap="round" stroke-linejoin="round"/>
<path d="M12.8457 5.58203C12.8457 7.75665 11.0828 9.51953 8.9082 9.51953C6.73358 9.51953 4.9707 7.75665 4.9707 5.58203C4.9707 3.40741 6.73358 1.64453 8.9082 1.64453C11.0828 1.64453 12.8457 3.40741 12.8457 5.58203Z" stroke="#12005B" stroke-width="1.5"/>
</svg>
