<svg width="53" height="31" viewBox="0 0 53 31" fill="none" xmlns="http://www.w3.org/2000/svg">
<rect width="53" height="31" rx="15.5" fill="#EBF9F1"/>
<path d="M17.4492 15.7871V20H16.3652V15.7754C16.3652 15.0645 16.2207 14.5586 15.9316 14.2578C15.6465 13.957 15.1445 13.8066 14.4258 13.8066H12.2285V12.8105H14.4375C15.1562 12.8105 15.7363 12.9121 16.1777 13.1152C16.6191 13.3145 16.9414 13.6328 17.1445 14.0703C17.3477 14.5039 17.4492 15.0762 17.4492 15.7871ZM20.748 16.0273V20H19.6699V16.0742C19.6699 15.6602 19.748 15.3242 19.9043 15.0664C20.0645 14.8086 20.334 14.6172 20.7129 14.4922L18.709 13.8184V12.7051L22.1191 13.8535V14.9727L21.4805 14.7559C21.2422 14.8848 21.082 14.998 21 15.0957C20.832 15.291 20.748 15.6016 20.748 16.0273ZM28.1426 15.7754C28.1426 15.0645 27.998 14.5586 27.709 14.2578C27.4238 13.957 26.9219 13.8066 26.2031 13.8066H24.3867V20H23.3086V12.8105H26.2148C27.293 12.8105 28.0645 13.041 28.5293 13.502C28.9941 13.9629 29.2266 14.7246 29.2266 15.7871V20H28.1426V15.7754ZM32.2852 12.8105V20H31.207V12.8105H32.2852ZM39.9551 15.7871V20H38.8711V15.7754C38.8711 15.0566 38.7246 14.5488 38.4316 14.252C38.1426 13.9551 37.6406 13.8066 36.9258 13.8066H34.1953V12.8105H36.9434C37.6621 12.8105 38.2422 12.9121 38.6836 13.1152C39.125 13.3145 39.4473 13.6328 39.6504 14.0703C39.8535 14.5039 39.9551 15.0762 39.9551 15.7871ZM35.3906 15.3301V20H34.3125V15.3301H35.3906Z" fill="#209254"/>
</svg>
