<svg width="306" height="42" viewBox="0 0 306 42" fill="none" xmlns="http://www.w3.org/2000/svg">
<path d="M1 4C1 2.067 2.567 0.5 4.5 0.5H301.5C303.433 0.5 305 2.067 305 4V38C305 39.933 303.433 41.5 301.5 41.5H4.5C2.567 41.5 1 39.933 1 38V4Z" stroke="#AAA4D9" stroke-opacity="0.5"/>
<path d="M270.793 24.1C271.313 24.108 271.749 24.012 272.101 23.812C272.461 23.612 272.733 23.328 272.917 22.96C273.109 22.584 273.205 22.156 273.205 21.676V18.424C273.205 18.344 273.229 18.28 273.277 18.232C273.333 18.176 273.401 18.148 273.481 18.148H273.973C274.061 18.148 274.129 18.176 274.177 18.232C274.225 18.28 274.249 18.344 274.249 18.424V21.76C274.249 22.272 274.169 22.736 274.009 23.152C273.849 23.56 273.621 23.912 273.325 24.208C273.029 24.496 272.677 24.716 272.269 24.868C271.869 25.02 271.425 25.088 270.937 25.072H270.037C269.517 25.072 269.049 24.952 268.633 24.712C268.217 24.472 267.889 24.136 267.649 23.704C267.409 23.272 267.289 22.772 267.289 22.204V18.424C267.289 18.344 267.313 18.28 267.361 18.232C267.417 18.176 267.485 18.148 267.565 18.148H268.069C268.149 18.148 268.213 18.176 268.261 18.232C268.317 18.28 268.345 18.344 268.345 18.424L268.381 21.964C268.381 22.652 268.573 23.18 268.957 23.548C269.341 23.916 269.829 24.1 270.421 24.1H270.793ZM268.129 22.696L268.105 21.82C268.697 21.812 269.149 21.724 269.461 21.556C269.773 21.38 269.989 21.148 270.109 20.86C270.237 20.572 270.301 20.256 270.301 19.912V18.424C270.301 18.344 270.325 18.28 270.373 18.232C270.421 18.176 270.489 18.148 270.577 18.148H271.069C271.149 18.148 271.213 18.176 271.261 18.232C271.317 18.28 271.345 18.344 271.345 18.424V19.96C271.345 20.48 271.229 20.948 270.997 21.364C270.765 21.78 270.409 22.108 269.929 22.348C269.457 22.588 268.857 22.704 268.129 22.696ZM276.072 25C275.992 25 275.924 24.976 275.868 24.928C275.82 24.872 275.796 24.804 275.796 24.724V18.424C275.796 18.344 275.82 18.28 275.868 18.232C275.924 18.176 275.992 18.148 276.072 18.148H276.636C276.724 18.148 276.792 18.176 276.84 18.232C276.888 18.28 276.912 18.344 276.912 18.424V24.724C276.912 24.804 276.888 24.872 276.84 24.928C276.792 24.976 276.724 25 276.636 25H276.072ZM279.601 19.132V20.068C279.609 20.356 279.645 20.596 279.709 20.788C279.773 20.98 279.897 21.1 280.081 21.148L280.525 21.268C280.589 21.284 280.637 21.328 280.669 21.4C280.709 21.464 280.729 21.544 280.729 21.64V21.94C280.729 22.028 280.685 22.092 280.597 22.132C280.509 22.172 280.413 22.184 280.309 22.168L279.841 22.072C279.585 22.008 279.365 21.896 279.181 21.736C278.997 21.568 278.857 21.344 278.761 21.064C278.673 20.776 278.629 20.432 278.629 20.032V18.424C278.629 18.344 278.653 18.28 278.701 18.232C278.749 18.176 278.817 18.148 278.905 18.148H281.125C281.725 18.148 282.225 18.268 282.625 18.508C283.025 18.74 283.329 19.08 283.537 19.528C283.745 19.968 283.857 20.5 283.873 21.124C283.881 21.244 283.885 21.396 283.885 21.58C283.885 21.756 283.881 21.904 283.873 22.024C283.857 22.64 283.745 23.172 283.537 23.62C283.329 24.068 283.025 24.412 282.625 24.652C282.225 24.884 281.725 25 281.125 25H279.049C278.969 25 278.901 24.976 278.845 24.928C278.797 24.872 278.773 24.804 278.773 24.724V24.292C278.773 24.212 278.797 24.148 278.845 24.1C278.901 24.044 278.969 24.016 279.049 24.016H281.065C281.617 24.016 282.041 23.84 282.337 23.488C282.641 23.128 282.809 22.628 282.841 21.988C282.849 21.868 282.853 21.732 282.853 21.58C282.853 21.42 282.849 21.28 282.841 21.16C282.825 20.52 282.661 20.024 282.349 19.672C282.045 19.312 281.617 19.132 281.065 19.132H279.601ZM285.521 22.216C285.441 22.216 285.373 22.192 285.317 22.144C285.269 22.088 285.245 22.02 285.245 21.94V18.424C285.245 18.344 285.269 18.28 285.317 18.232C285.373 18.176 285.441 18.148 285.521 18.148H286.085C286.173 18.148 286.241 18.176 286.289 18.232C286.337 18.28 286.361 18.344 286.361 18.424V21.94C286.361 22.02 286.337 22.088 286.289 22.144C286.241 22.192 286.173 22.216 286.085 22.216H285.521ZM288.286 25C288.206 25 288.138 24.976 288.082 24.928C288.034 24.872 288.01 24.804 288.01 24.724V18.424C288.01 18.344 288.034 18.28 288.082 18.232C288.138 18.176 288.206 18.148 288.286 18.148H290.614C291.31 18.148 291.882 18.26 292.33 18.484C292.786 18.7 293.126 19.028 293.35 19.468C293.574 19.9 293.686 20.444 293.686 21.1V24.724C293.686 24.804 293.658 24.872 293.602 24.928C293.554 24.976 293.49 25 293.41 25H292.87C292.782 25 292.714 24.976 292.666 24.928C292.618 24.872 292.594 24.804 292.594 24.724V21.136C292.594 20.496 292.434 20 292.114 19.648C291.794 19.288 291.274 19.108 290.554 19.108H289.102V24.724C289.102 24.804 289.078 24.872 289.03 24.928C288.982 24.976 288.914 25 288.826 25H288.286Z" fill="#AAA4D9"/>
<g opacity="0.7">
<path d="M33 28.625L28 23.875M29.6667 19.9167C29.6667 22.9772 27.055 25.4583 23.8333 25.4583C20.6117 25.4583 18 22.9772 18 19.9167C18 16.8561 20.6117 14.375 23.8333 14.375C27.055 14.375 29.6667 16.8561 29.6667 19.9167Z" stroke="#AAA4D9" stroke-width="1.50421" stroke-linecap="round" stroke-linejoin="round"/>
</g>
</svg>
