<svg width="80" height="24" viewBox="0 0 80 24" fill="none" xmlns="http://www.w3.org/2000/svg">
<path d="M4.95312 16.5156C4.77604 17.0417 4.49479 17.4219 4.10938 17.6562C3.72396 17.8854 3.11719 18 2.28906 18H2.20312V16.6719H2.33594C2.69531 16.6719 2.98177 16.6042 3.19531 16.4688C3.40365 16.3333 3.55208 16.1276 3.64062 15.8516C3.72917 15.5703 3.77344 15.1458 3.77344 14.5781V9.74219H2.28906V8.41406H7.46875C8.90625 8.41406 9.9375 8.72135 10.5625 9.33594C11.1875 9.94531 11.5 10.9609 11.5 12.3828V18H10.0625V12.3672C10.0625 11.4089 9.86719 10.7318 9.47656 10.3359C9.09115 9.9401 8.41667 9.74219 7.45312 9.74219H5.21094V14.2891C5.21094 15.2474 5.125 15.9896 4.95312 16.5156ZM15.5859 8.41406V18H14.1484V8.41406H15.5859ZM24.2109 12.3828V18H22.7656V12.3672C22.7656 11.4193 22.5729 10.7448 22.1875 10.3438C21.8073 9.94271 21.138 9.74219 20.1797 9.74219H17.25V8.41406H20.1953C21.1536 8.41406 21.9271 8.54948 22.5156 8.82031C23.1042 9.08594 23.5339 9.51042 23.8047 10.0938C24.0755 10.6719 24.2109 11.4349 24.2109 12.3828ZM32.7266 9.74219V18H31.2812V9.74219H25.8125V8.41406H33.9219V9.74219H32.7266ZM36.3984 8.41406C36.8516 8.41406 37.2214 8.45052 37.5078 8.52344C37.7995 8.59115 38.0391 8.72135 38.2266 8.91406C38.4141 9.10156 38.5807 9.3776 38.7266 9.74219C38.8047 9.92448 38.8958 10.2083 39 10.5938C39.1042 10.974 39.224 11.4583 39.3594 12.0469L40.7188 18H39.2969L38.4141 14.0625C37.9766 14.1719 37.6562 14.3047 37.4531 14.4609C37.2552 14.6172 37.0911 14.849 36.9609 15.1562C36.8932 15.3073 36.8281 15.5052 36.7656 15.75C36.7083 15.9896 36.651 16.2708 36.5938 16.5938L36.3359 18H34.8594L35.1328 16.5781C35.2526 15.9583 35.3724 15.4583 35.4922 15.0781C35.6172 14.6927 35.7734 14.3802 35.9609 14.1406C36.112 13.9427 36.2969 13.7708 36.5156 13.625C36.7344 13.474 37.0495 13.3385 37.4609 13.2188L38.1719 13.0078C38.0417 12.4557 37.9271 11.9948 37.8281 11.625C37.7292 11.25 37.6458 10.9661 37.5781 10.7734C37.4427 10.388 37.2943 10.1198 37.1328 9.96875C36.9714 9.81771 36.7422 9.74219 36.4453 9.74219H35.3906V8.41406H36.3984ZM50 12.3828V18H48.5547V12.3672C48.5547 11.4089 48.3594 10.7318 47.9688 10.3359C47.5833 9.9401 46.9141 9.74219 45.9609 9.74219H42.3203V8.41406H45.9844C46.9427 8.41406 47.7161 8.54948 48.3047 8.82031C48.8932 9.08594 49.3229 9.51042 49.5938 10.0938C49.8646 10.6719 50 11.4349 50 12.3828ZM43.9141 11.7734V18H42.4766V11.7734H43.9141Z" fill="white"/>
<path d="M67.1875 5.94C67.2775 5.398 67.7475 5 68.2975 5H70.8905C71.4405 5 71.9105 5.398 72.0005 5.94L72.2135 7.221C72.2765 7.595 72.5265 7.907 72.8585 8.091C72.9325 8.131 73.0055 8.174 73.0785 8.218C73.4025 8.414 73.7985 8.475 74.1535 8.342L75.3705 7.886C75.6199 7.79221 75.8945 7.78998 76.1453 7.87971C76.3962 7.96945 76.6071 8.14531 76.7405 8.376L78.0365 10.623C78.1695 10.8537 78.2164 11.1241 78.1688 11.3862C78.1212 11.6482 77.9822 11.8848 77.7765 12.054L76.7735 12.881C76.4805 13.121 76.3355 13.494 76.3425 13.873C76.3441 13.958 76.3441 14.043 76.3425 14.128C76.3355 14.506 76.4805 14.878 76.7725 15.118L77.7775 15.946C78.2015 16.296 78.3115 16.9 78.0375 17.376L76.7395 19.623C76.6063 19.8536 76.3957 20.0296 76.145 20.1195C75.8943 20.2094 75.6199 20.2074 75.3705 20.114L74.1535 19.658C73.7985 19.525 73.4035 19.586 73.0775 19.782C73.005 19.8261 72.9316 19.8688 72.8575 19.91C72.5265 20.093 72.2765 20.405 72.2135 20.779L72.0005 22.059C71.9105 22.602 71.4405 23 70.8905 23H68.2965C67.7465 23 67.2765 22.602 67.1865 22.06L66.9735 20.779C66.9115 20.405 66.6615 20.093 66.3295 19.909C66.2553 19.8681 66.182 19.8258 66.1095 19.782C65.7845 19.586 65.3895 19.525 65.0335 19.658L63.8165 20.114C63.5672 20.2075 63.2928 20.2096 63.0422 20.1199C62.7915 20.0302 62.5808 19.8545 62.4475 19.624L61.1505 17.377C61.0174 17.1463 60.9705 16.8759 61.0181 16.6138C61.0657 16.3518 61.2048 16.1152 61.4105 15.946L62.4145 15.119C62.7065 14.879 62.8515 14.506 62.8445 14.127C62.8429 14.042 62.8429 13.957 62.8445 13.872C62.8515 13.494 62.7065 13.122 62.4145 12.882L61.4105 12.054C61.205 11.8849 61.0661 11.6484 61.0185 11.3866C60.9709 11.1248 61.0177 10.8546 61.1505 10.624L62.4475 8.377C62.5807 8.14614 62.7915 7.97006 63.0424 7.88014C63.2933 7.79021 63.568 7.79229 63.8175 7.886L65.0335 8.342C65.3895 8.475 65.7845 8.414 66.1095 8.218C66.1815 8.174 66.2555 8.131 66.3295 8.09C66.6615 7.907 66.9115 7.595 66.9735 7.221L67.1875 5.94Z" stroke="white" stroke-width="2" stroke-linecap="round" stroke-linejoin="round"/>
<path d="M72.5938 14C72.5938 14.7956 72.2777 15.5587 71.7151 16.1213C71.1525 16.6839 70.3894 17 69.5938 17C68.7981 17 68.035 16.6839 67.4724 16.1213C66.9098 15.5587 66.5938 14.7956 66.5938 14C66.5938 13.2044 66.9098 12.4413 67.4724 11.8787C68.035 11.3161 68.7981 11 69.5938 11C70.3894 11 71.1525 11.3161 71.7151 11.8787C72.2777 12.4413 72.5938 13.2044 72.5938 14Z" stroke="white" stroke-width="2" stroke-linecap="round" stroke-linejoin="round"/>
</svg>
