<svg width="98" height="99" viewBox="0 0 98 99" fill="none" xmlns="http://www.w3.org/2000/svg">
<path d="M95.9583 15.2438H91.875H6.125H2.04167C0.914667 15.2438 0 16.1585 0 17.2855C0 18.4125 0.914667 19.3271 2.04167 19.3271H4.08333V25.4521C4.08333 26.5791 4.998 27.4938 6.125 27.4938H8.16667V82.6188C8.16667 83.7458 9.08133 84.6605 10.2083 84.6605H18.375C19.502 84.6605 20.4167 83.7458 20.4167 82.6188V64.2438H77.5833V82.6188C77.5833 83.7458 78.498 84.6605 79.625 84.6605H87.7917C88.9187 84.6605 89.8333 83.7458 89.8333 82.6188V27.4938H91.875C93.002 27.4938 93.9167 26.5791 93.9167 25.4521V19.3271H95.9583C97.0853 19.3271 98 18.4125 98 17.2855C98 16.1585 97.0853 15.2438 95.9583 15.2438ZM20.4167 60.1605V35.6605H77.5833V60.1605H20.4167ZM85.75 80.5771H81.6667V33.6188C81.6667 32.4918 80.752 31.5771 79.625 31.5771H18.375C17.248 31.5771 16.3333 32.4918 16.3333 33.6188V80.5771H12.25V27.4938H85.75V80.5771ZM89.8333 23.4105H87.7917H10.2083H8.16667V19.3271H89.8333V23.4105Z" fill="black"/>
</svg>
