<svg width="58" height="98" viewBox="0 0 58 98" fill="none" xmlns="http://www.w3.org/2000/svg">
<path d="M8.5498 86.2349C8.39486 86.6951 8.14876 87.0278 7.81152 87.2329C7.47428 87.4334 6.94336 87.5337 6.21875 87.5337H6.14355V86.3716H6.25977C6.57422 86.3716 6.82487 86.3123 7.01172 86.1938C7.19401 86.0754 7.32389 85.8953 7.40137 85.6538C7.47884 85.4077 7.51758 85.0363 7.51758 84.5396V80.3081H6.21875V79.146H10.751C12.0088 79.146 12.9111 79.4149 13.458 79.9526C14.0049 80.4858 14.2783 81.3745 14.2783 82.6187V87.5337H13.0205V82.605C13.0205 81.7664 12.8496 81.174 12.5078 80.8276C12.1706 80.4813 11.5804 80.3081 10.7373 80.3081H8.77539V84.2866C8.77539 85.1252 8.7002 85.7746 8.5498 86.2349ZM17.8535 79.146V87.5337H16.5957V79.146H17.8535ZM23.3701 82.3931V87.5337H19.5352V86.3716H22.1123V82.7485C22.1123 82.0103 22.0758 81.4884 22.0029 81.1831C21.93 80.8687 21.8024 80.6453 21.6201 80.5132C21.4424 80.3765 21.1849 80.3081 20.8477 80.3081H19.9248V79.146H20.8066C21.5358 79.146 22.069 79.2463 22.4062 79.4468C22.7435 79.6519 22.9873 79.9868 23.1377 80.4517C23.2926 80.9119 23.3701 81.5591 23.3701 82.3931ZM31.3271 82.605C31.3271 81.7756 31.1585 81.1854 30.8213 80.8345C30.4886 80.4836 29.903 80.3081 29.0645 80.3081H26.9453V87.5337H25.6875V79.146H29.0781C30.3359 79.146 31.236 79.4149 31.7783 79.9526C32.3206 80.4904 32.5918 81.3791 32.5918 82.6187V87.5337H31.3271V82.605ZM34.7451 86.4263C35.6201 86.1027 36.3675 85.6925 36.9873 85.1958C37.6117 84.7036 38.0856 84.1659 38.4092 83.5825C38.7373 82.9992 38.9014 82.4067 38.9014 81.8052C38.9014 80.8071 38.3682 80.3081 37.3018 80.3081H33.9043V76.1519H35.1621V79.146H37.4316C39.2591 79.146 40.1729 79.9595 40.1729 81.5864C40.1729 82.425 39.9723 83.2293 39.5713 83.9995C39.1702 84.7697 38.6051 85.4624 37.876 86.0776C37.0101 86.8159 35.9665 87.4038 34.7451 87.8413V86.4263ZM43.584 79.146V87.5337H42.3262V79.146H43.584ZM52.252 86.686C51.9375 86.8957 51.5456 87.0666 51.0762 87.1987C50.6113 87.3309 50.028 87.4289 49.3262 87.4927C48.6243 87.5565 47.7562 87.5929 46.7217 87.6021L45.1221 79.146H46.4277L47.2686 83.4595L47.7676 83.3638C48.041 83.3 48.2666 83.2179 48.4443 83.1177C48.6221 83.0129 48.7633 82.867 48.8682 82.6802C48.9548 82.5343 49.0208 82.3543 49.0664 82.1401C49.112 81.9259 49.1462 81.6707 49.1689 81.3745L49.3398 79.146H50.6387L50.4268 81.3882C50.3949 81.7664 50.3561 82.0946 50.3105 82.3726C50.265 82.646 50.2103 82.867 50.1465 83.0356C50.0326 83.3774 49.8617 83.6418 49.6338 83.8286C49.4059 84.0109 49.0277 84.1727 48.499 84.314L47.4736 84.5532L47.8086 86.3169H47.9727C48.8887 86.3169 49.6224 86.2645 50.1738 86.1597C50.7253 86.0503 51.1605 85.8817 51.4795 85.6538C51.6937 85.4989 51.8737 85.3075 52.0195 85.0796C52.1654 84.8517 52.2884 84.5509 52.3887 84.1772C52.4889 83.8035 52.5732 83.3228 52.6416 82.7349L53.0723 79.146H54.3916L53.9541 82.687C53.863 83.48 53.7445 84.134 53.5986 84.6489C53.4528 85.1593 53.2705 85.5741 53.0518 85.8931C52.8376 86.2075 52.571 86.4718 52.252 86.686Z" fill="#5169BD"/>
<path d="M56.7917 8.99203H54.375H3.625H1.20833C0.541333 8.99203 0 9.53337 0 10.2004C0 10.8674 0.541333 11.4087 1.20833 11.4087H2.41667V15.0337C2.41667 15.7007 2.958 16.242 3.625 16.242H4.83333V48.867C4.83333 49.534 5.37467 50.0754 6.04167 50.0754H10.875C11.542 50.0754 12.0833 49.534 12.0833 48.867V37.992H45.9167V48.867C45.9167 49.534 46.458 50.0754 47.125 50.0754H51.9583C52.6253 50.0754 53.1667 49.534 53.1667 48.867V16.242H54.375C55.042 16.242 55.5833 15.7007 55.5833 15.0337V11.4087H56.7917C57.4587 11.4087 58 10.8674 58 10.2004C58 9.53337 57.4587 8.99203 56.7917 8.99203ZM12.0833 35.5754V21.0754H45.9167V35.5754H12.0833ZM50.75 47.6587H48.3333V19.867C48.3333 19.2 47.792 18.6587 47.125 18.6587H10.875C10.208 18.6587 9.66667 19.2 9.66667 19.867V47.6587H7.25V16.242H50.75V47.6587ZM53.1667 13.8254H51.9583H6.04167H4.83333V11.4087H53.1667V13.8254Z" fill="#12005B"/>
</svg>
