<svg width="72" height="73" viewBox="0 0 72 73" fill="none" xmlns="http://www.w3.org/2000/svg">
<g clip-path="url(#clip0_569_1221)">
<path d="M33.003 46.5911C32.085 46.5911 31.167 46.2431 30.468 45.5411C28.548 43.6211 27.387 41.8841 26.769 40.0271C26.325 38.6921 25.26 37.6271 23.922 37.1801C22.065 36.5621 20.331 35.4041 18.465 33.5382L2.556 17.6292C0.909 15.9822 0 13.7891 0 11.4581C0 9.11515 0.909 6.92215 2.556 5.27215L4.32 3.50815C7.626 0.20215 13.386 0.217149 16.677 3.50815L32.586 19.4172C34.452 21.2802 35.61 23.0142 36.228 24.8741C36.672 26.2092 37.737 27.2741 39.075 27.7211C40.932 28.3391 42.666 29.4971 44.532 31.3631C45.987 32.8181 45.987 35.0831 44.595 36.4721L35.52 45.5471C34.827 46.2431 33.918 46.5911 33.003 46.5911ZM10.503 3.95215C8.961 3.95215 7.524 4.54915 6.441 5.63215L4.677 7.39315C3.597 8.47615 3 9.91615 3 11.4461C3 12.9881 3.597 14.4282 4.68 15.5082L20.589 31.4171C22.113 32.9411 23.475 33.8681 24.873 34.3331C27.102 35.0771 28.875 36.8501 29.619 39.0791C30.084 40.4801 31.014 41.8421 32.541 43.3691C32.82 43.6481 33.174 43.6541 33.405 43.4291L42.48 34.3541C42.702 34.1321 42.702 33.7721 42.48 33.5501C40.89 31.9601 39.531 31.0331 38.13 30.5681C35.901 29.8241 34.128 28.0511 33.384 25.8221C32.916 24.4211 31.992 23.0621 30.465 21.5382L14.556 5.62915C13.476 4.54915 12.036 3.95215 10.503 3.95215Z" fill="black"/>
<path d="M67.4998 72.9522C67.2718 72.9522 67.0438 72.9012 66.8278 72.7932L56.4868 67.6212C54.9538 66.8562 53.9998 65.3112 53.9998 63.5982V61.5732L36.4378 44.0112C35.8528 43.4262 35.8528 42.4752 36.4378 41.8902C37.0228 41.3052 37.9738 41.3052 38.5588 41.8902L56.5588 59.8902C56.8408 60.1722 56.9998 60.5532 56.9998 60.9522V63.5982C56.9998 64.1712 57.3178 64.6842 57.8278 64.9392L67.2028 69.6282L68.6728 68.1582L63.9838 58.7832C63.7318 58.2702 63.2188 57.9522 62.6458 57.9522H59.9998C59.6008 57.9522 59.2198 57.7932 58.9378 57.5142L40.9378 39.5142C40.3528 38.9292 40.3528 37.9782 40.9378 37.3932C41.5228 36.8082 42.4738 36.8082 43.0588 37.3932L60.6208 54.9522H62.6458C64.3618 54.9522 65.9038 55.9062 66.6718 57.4392L71.8438 67.7802C72.1318 68.3562 72.0208 69.0552 71.5618 69.5112L68.5618 72.5112C68.2708 72.8022 67.8868 72.9522 67.4998 72.9522Z" fill="black"/>
<path d="M42.7501 40.7021C42.3661 40.7021 41.9821 40.5551 41.6881 40.2641L40.1881 38.7641C39.6031 38.1791 39.6031 37.2281 40.1881 36.6431L42.4771 34.3541C42.6661 34.1651 42.6661 33.7391 42.4771 33.5501C40.8871 31.9601 39.5281 31.0331 38.1271 30.5681C37.0291 30.2021 36.0151 29.5751 35.1931 28.7531C34.6081 28.1681 34.6081 27.2201 35.1931 26.6321L39.5101 22.3151C41.1841 20.6411 42.0931 18.5171 42.0061 16.4861C41.8471 12.7841 43.3951 9.24714 46.7431 5.68014C49.6081 2.62614 53.5231 0.922141 57.1861 0.952141C60.5221 0.994141 63.6991 2.15814 66.3781 4.32114C66.7591 4.63014 66.9661 5.10414 66.9331 5.59314C66.8971 6.08214 66.6271 6.52314 66.2071 6.77514L57.0391 12.2741C57.3121 15.0281 58.9411 17.4491 61.4341 18.7391L69.6421 13.8161C70.1012 13.5401 70.6651 13.5311 71.1331 13.7861C71.5891 14.0351 71.9431 14.5301 71.9731 15.0461C72.2191 19.2281 70.7791 23.2031 67.9141 26.2391C65.0911 29.2361 61.1131 30.9521 57.0001 30.9521C55.8961 30.9521 54.7891 30.8081 53.5741 30.4991L43.8121 40.2611C43.5181 40.5551 43.1341 40.7021 42.7501 40.7021ZM38.5591 27.5141C38.7271 27.5951 38.8981 27.6641 39.0751 27.7211C40.9351 28.3391 42.6691 29.4971 44.5351 31.3631C45.3331 32.1611 45.6931 33.1961 45.6271 34.2011L52.0711 27.7571C52.4611 27.3671 53.0311 27.2201 53.5651 27.3821C54.8491 27.7721 55.9381 27.9521 57.0001 27.9521C60.3391 27.9521 63.4411 26.6141 65.7331 24.1841C67.4281 22.3841 68.5021 20.1731 68.8621 17.7851L62.2711 21.7391C61.8331 22.0031 61.2901 22.0241 60.8281 21.7961L60.1951 21.4811C56.3731 19.5641 54.0001 15.7241 54.0001 11.4521C54.0001 10.9241 54.2761 10.4381 54.7291 10.1651L62.6491 5.41314C60.9451 4.47714 59.0761 3.97614 57.1471 3.95214C54.3181 3.87414 51.2221 5.29014 48.9361 7.72914C46.1311 10.7201 44.8831 13.4621 45.0091 16.3541C45.1351 19.2221 43.9051 22.1681 41.6371 24.4331L38.5591 27.5141Z" fill="black"/>
<path d="M14.991 72.9521C14.985 72.9521 14.979 72.9521 14.97 72.9521C11.874 72.9461 8.886 71.9801 6.324 70.1561C5.913 69.8621 5.676 69.3821 5.697 68.8751C5.715 68.3711 5.991 67.9091 6.423 67.6481L16.458 61.6271C16.185 58.8701 14.556 56.4521 12.063 55.1621L2.442 60.9341C2.004 61.1951 1.473 61.2191 1.014 60.9971C0.558 60.7751 0.246 60.3401 0.18 59.8391L0.132 59.4851C0.066 58.9811 0 58.4771 0 57.9521C0 49.6811 6.729 42.9521 15 42.9521C17.475 42.8201 19.677 42.1511 21.159 40.6721L25.683 36.1481C26.268 35.5631 27.216 35.5631 27.804 36.1481C28.626 36.9671 29.253 37.9811 29.619 39.0821C30.084 40.4801 31.011 41.8421 32.541 43.3721C32.82 43.6511 33.174 43.6571 33.405 43.4321L35.694 41.1431C36.279 40.5581 37.23 40.5581 37.815 41.1431L39.315 42.6431C39.9 43.2281 39.9 44.1791 39.315 44.7641L32.499 51.5801C30.819 53.2601 29.907 55.3931 29.994 57.4271C30.153 61.1051 28.623 64.6151 25.32 68.1581C22.479 71.2031 18.714 72.9521 14.991 72.9521ZM10.152 68.9111C11.67 69.5921 13.305 69.9491 14.976 69.9521C14.976 69.9521 14.985 69.9521 14.991 69.9521C17.886 69.9521 20.847 68.5541 23.121 66.1121C25.884 63.1451 27.114 60.4271 26.991 57.5531C26.868 54.6791 28.101 51.7271 30.372 49.4561L33.246 46.5821C32.235 46.6601 31.227 46.3031 30.468 45.5411C28.548 43.6211 27.387 41.8841 26.769 40.0271C26.709 39.8501 26.643 39.6791 26.562 39.5111L23.28 42.7931C21.24 44.8301 18.333 45.9521 15.09 45.9521C15.072 45.9521 15.054 45.9521 15.036 45.9521C8.676 45.9521 3.477 50.8721 3.033 57.0851L11.229 52.1651C11.67 51.9011 12.213 51.8801 12.672 52.1081L13.305 52.4231C17.124 54.3371 19.5 58.1801 19.5 62.4521C19.5 62.9801 19.224 63.4661 18.771 63.7391L10.152 68.9111Z" fill="black"/>
</g>
<defs>
<clipPath id="clip0_569_1221">
<rect width="72" height="72" fill="white" transform="translate(0 0.952148)"/>
</clipPath>
</defs>
</svg>
