<svg width="65" height="90" viewBox="0 0 65 90" fill="none" xmlns="http://www.w3.org/2000/svg">
<path d="M13.6006 74.96V79.875H12.3359V74.9463C12.3359 74.1077 12.165 73.5153 11.8232 73.1689C11.486 72.8226 10.9004 72.6494 10.0664 72.6494H6.88086V71.4873H10.0869C10.9255 71.4873 11.6022 71.6058 12.1172 71.8428C12.6322 72.0752 13.0081 72.4466 13.2451 72.957C13.4821 73.4629 13.6006 74.1305 13.6006 74.96ZM8.27539 74.4268V79.875H7.01758V74.4268H8.27539ZM20.6211 72.6494V79.875H19.3564V72.6494H14.5713V71.4873H21.667V72.6494H20.6211ZM24.9277 71.4873V79.875H23.6699V71.4873H24.9277ZM33.999 78.7129V79.875H26.6777V78.7129H31.832V74.9463C31.832 74.1077 31.6611 73.5153 31.3193 73.1689C30.9821 72.8226 30.3965 72.6494 29.5625 72.6494H26.999V71.4873H29.5762C30.834 71.4873 31.734 71.7562 32.2764 72.2939C32.8187 72.8317 33.0898 73.7204 33.0898 74.96V78.7129H33.999ZM34.7783 78.7676C36.0407 78.7676 37.0296 78.6514 37.7451 78.4189L35.209 71.4873H36.5967L38.8389 77.8857C39.2673 77.5804 39.6113 77.1725 39.8711 76.6621C40.1354 76.1471 40.3268 75.4727 40.4453 74.6387C40.5684 73.8047 40.6299 72.7542 40.6299 71.4873H41.9492C41.9492 73.5928 41.7259 75.2425 41.2793 76.4365C40.9785 77.2295 40.557 77.8857 40.0146 78.4053C39.4723 78.9202 38.7728 79.3167 37.916 79.5947C37.0638 79.8682 36.0179 80.0368 34.7783 80.1006V78.7676ZM49.0312 71.4873V75.8965H47.7734V71.4873H49.0312ZM51.54 78.7676C52.415 78.444 53.1624 78.0339 53.7822 77.5371C54.4066 77.0449 54.8805 76.5072 55.2041 75.9238C55.5322 75.3405 55.6963 74.748 55.6963 74.1465C55.6963 73.1484 55.1631 72.6494 54.0967 72.6494H50.6992V68.4932H51.957V71.4873H54.2266C56.054 71.4873 56.9678 72.3008 56.9678 73.9277C56.9678 74.7663 56.7673 75.5706 56.3662 76.3408C55.9652 77.111 55.4001 77.8037 54.6709 78.4189C53.805 79.1572 52.7614 79.7451 51.54 80.1826V78.7676ZM63.9404 75.8008C63.9404 78.5169 62.6553 79.875 60.085 79.875H57.9043V78.7129H60.1123C60.9827 78.7129 61.6253 78.4714 62.04 77.9883C62.4548 77.5052 62.6621 76.7806 62.6621 75.8145V75.5479C62.6621 74.5771 62.4525 73.8525 62.0332 73.374C61.6185 72.891 60.9782 72.6494 60.1123 72.6494H57.9043V71.4873H60.085C62.6553 71.4873 63.9404 72.8454 63.9404 75.5615V75.8008Z" fill="#5169BD"/>
<g clip-path="url(#clip0_1006_4390)">
<path d="M30.2518 27.4977C29.7163 27.4977 29.1807 27.2947 28.773 26.8852C27.653 25.7652 26.9758 24.752 26.6153 23.6687C26.3563 22.89 25.735 22.2687 24.9545 22.008C23.8713 21.6475 22.8598 20.972 21.7713 19.8835L12.491 10.6032C11.5302 9.64249 11 8.36324 11 7.00349C11 5.63674 11.5302 4.35749 12.491 3.39499L13.52 2.36599C15.4485 0.437493 18.8085 0.446243 20.7283 2.36599L30.0085 11.6462C31.097 12.733 31.7725 13.7445 32.133 14.8295C32.392 15.6082 33.0132 16.2295 33.7937 16.4902C34.877 16.8507 35.8885 17.5262 36.977 18.6147C37.8258 19.4635 37.8258 20.7847 37.0138 21.595L31.72 26.8887C31.3158 27.2947 30.7855 27.4977 30.2518 27.4977ZM17.1267 2.62499C16.2273 2.62499 15.389 2.97324 14.7573 3.60499L13.7283 4.63224C13.0982 5.26399 12.75 6.10399 12.75 6.99649C12.75 7.89599 13.0982 8.73599 13.73 9.36599L23.0103 18.6462C23.8993 19.5352 24.6938 20.076 25.5093 20.3472C26.8095 20.7812 27.8438 21.8155 28.2778 23.1157C28.549 23.933 29.0915 24.7275 29.9823 25.6182C30.145 25.781 30.3515 25.7845 30.4862 25.6532L35.78 20.3595C35.9095 20.23 35.9095 20.02 35.78 19.8905C34.8525 18.963 34.0597 18.4222 33.2425 18.151C31.9422 17.717 30.908 16.6827 30.474 15.3825C30.201 14.5652 29.662 13.7725 28.7712 12.8835L19.491 3.60324C18.861 2.97324 18.021 2.62499 17.1267 2.62499Z" fill="#12005B"/>
<path d="M50.3754 42.875C50.2424 42.875 50.1094 42.8453 49.9834 42.7823L43.9512 39.7652C43.0569 39.319 42.5004 38.4177 42.5004 37.4185V36.2373L32.2559 25.9927C31.9147 25.6515 31.9147 25.0967 32.2559 24.7555C32.5972 24.4142 33.1519 24.4142 33.4932 24.7555L43.9932 35.2555C44.1577 35.42 44.2504 35.6423 44.2504 35.875V37.4185C44.2504 37.7527 44.4359 38.052 44.7334 38.2008L50.2022 40.936L51.0597 40.0785L48.3244 34.6098C48.1774 34.3105 47.8782 34.125 47.5439 34.125H46.0004C45.7677 34.125 45.5454 34.0322 45.3809 33.8695L34.8809 23.3695C34.5397 23.0282 34.5397 22.4735 34.8809 22.1322C35.2222 21.791 35.7769 21.791 36.1182 22.1322L46.3627 32.375H47.5439C48.5449 32.375 49.4444 32.9315 49.8924 33.8258L52.9094 39.858C53.0774 40.194 53.0127 40.6018 52.7449 40.8678L50.9949 42.6178C50.8252 42.7875 50.6012 42.875 50.3754 42.875Z" fill="#12005B"/>
<path d="M35.9376 24.0625C35.7136 24.0625 35.4896 23.9767 35.3181 23.807L34.4431 22.932C34.1019 22.5907 34.1019 22.036 34.4431 21.6947L35.7784 20.3595C35.8886 20.2492 35.8886 20.0007 35.7784 19.8905C34.8509 18.963 34.0581 18.4222 33.2409 18.151C32.6004 17.9375 32.0089 17.5717 31.5294 17.0922C31.1881 16.751 31.1881 16.198 31.5294 15.855L34.0476 13.3367C35.0241 12.3602 35.5544 11.1212 35.5036 9.9365C35.4109 7.777 36.3139 5.71375 38.2669 3.633C39.9381 1.8515 42.2219 0.857498 44.3586 0.874998C46.3046 0.899498 48.1579 1.5785 49.7206 2.84025C49.9429 3.0205 50.0636 3.297 50.0444 3.58225C50.0234 3.8675 49.8659 4.12475 49.6209 4.27175L44.2729 7.4795C44.4321 9.086 45.3824 10.4982 46.8366 11.2507L51.6246 8.379C51.8924 8.218 52.2214 8.21275 52.4944 8.3615C52.7604 8.50675 52.9669 8.7955 52.9844 9.0965C53.1279 11.536 52.2879 13.8547 50.6166 15.6257C48.9699 17.374 46.6494 18.375 44.2501 18.375C43.6061 18.375 42.9604 18.291 42.2516 18.1107L36.5571 23.8052C36.3856 23.9767 36.1616 24.0625 35.9376 24.0625ZM33.4929 16.3695C33.5909 16.4167 33.6906 16.457 33.7939 16.4902C34.8789 16.8507 35.8904 17.5262 36.9789 18.6147C37.4444 19.0802 37.6544 19.684 37.6159 20.2702L41.3749 16.5112C41.6024 16.2837 41.9349 16.198 42.2464 16.2925C42.9954 16.52 43.6306 16.625 44.2501 16.625C46.1979 16.625 48.0074 15.8445 49.3444 14.427C50.3331 13.377 50.9596 12.0872 51.1696 10.6942L47.3249 13.0007C47.0694 13.1547 46.7526 13.167 46.4831 13.034L46.1139 12.8502C43.8844 11.732 42.5001 9.492 42.5001 7C42.5001 6.692 42.6611 6.4085 42.9254 6.24925L47.5454 3.47725C46.5514 2.93125 45.4611 2.639 44.3359 2.625C42.6856 2.5795 40.8796 3.4055 39.5461 4.82825C37.9099 6.573 37.1819 8.1725 37.2554 9.8595C37.3289 11.5325 36.6114 13.251 35.2884 14.5722L33.4929 16.3695Z" fill="#12005B"/>
<path d="M19.7448 42.875C19.7413 42.875 19.7378 42.875 19.7325 42.875C17.9265 42.8715 16.1835 42.308 14.689 41.244C14.4492 41.0725 14.311 40.7925 14.3233 40.4967C14.3338 40.2027 14.4948 39.9332 14.7468 39.781L20.6005 36.2687C20.4412 34.6605 19.491 33.25 18.0367 32.4975L12.4245 35.8645C12.169 36.0167 11.8593 36.0307 11.5915 35.9012C11.3255 35.7717 11.1435 35.518 11.105 35.2257L11.077 35.0192C11.0385 34.7252 11 34.4312 11 34.125C11 29.3002 14.9253 25.375 19.75 25.375C21.1938 25.298 22.4782 24.9077 23.3427 24.045L25.9817 21.406C26.323 21.0647 26.876 21.0647 27.219 21.406C27.6985 21.8837 28.0643 22.4752 28.2778 23.1175C28.549 23.933 29.0898 24.7275 29.9823 25.62C30.145 25.7827 30.3515 25.7862 30.4862 25.655L31.8215 24.3197C32.1628 23.9785 32.7175 23.9785 33.0588 24.3197L33.9338 25.1947C34.275 25.536 34.275 26.0907 33.9338 26.432L29.9578 30.408C28.9778 31.388 28.4458 32.6322 28.4965 33.8187C28.5893 35.9642 27.6967 38.0117 25.77 40.0785C24.1127 41.8547 21.9165 42.875 19.7448 42.875ZM16.922 40.5177C17.8075 40.915 18.7613 41.1232 19.736 41.125C19.736 41.125 19.7413 41.125 19.7448 41.125C21.4335 41.125 23.1607 40.3095 24.4872 38.885C26.099 37.1542 26.8165 35.5687 26.7447 33.8922C26.673 32.2157 27.3923 30.4937 28.717 29.169L30.3935 27.4925C29.8037 27.538 29.2157 27.3297 28.773 26.8852C27.653 25.7652 26.9758 24.752 26.6153 23.6687C26.5803 23.5655 26.5417 23.4657 26.4945 23.3677L24.58 25.2822C23.39 26.4705 21.6943 27.125 19.8025 27.125C19.792 27.125 19.7815 27.125 19.771 27.125C16.061 27.125 13.0282 29.995 12.7693 33.6192L17.5503 30.7492C17.8075 30.5952 18.1242 30.583 18.392 30.716L18.7613 30.8997C20.989 32.0162 22.375 34.258 22.375 36.75C22.375 37.058 22.214 37.3415 21.9497 37.5007L16.922 40.5177Z" fill="#12005B"/>
</g>
<defs>
<clipPath id="clip0_1006_4390">
<rect width="42" height="42" fill="white" transform="translate(11 0.875)"/>
</clipPath>
</defs>
</svg>
