<svg width="33" height="33" viewBox="0 0 33 33" fill="none" xmlns="http://www.w3.org/2000/svg">
<path d="M12.2418 25.6144C13.9766 25.6253 15.6963 25.2917 17.3011 24.6328C18.906 23.974 20.364 23.003 21.5908 21.7763C22.8175 20.5496 23.7884 19.0915 24.4472 17.4867C25.1061 15.8818 25.4397 14.1622 25.4288 12.4274V11.8214C26.3281 11.1626 27.1064 10.3529 27.7294 9.42844C26.8826 9.79878 25.9866 10.0444 25.0694 10.1576C26.0419 9.57816 26.7716 8.66604 27.1234 7.59006C26.2171 8.13381 25.2232 8.51606 24.1861 8.71979C23.4877 7.97557 22.5634 7.48228 21.5564 7.31624C20.5493 7.1502 19.5157 7.32067 18.6153 7.80127C17.7149 8.28188 16.9979 9.04582 16.5754 9.9749C16.1529 10.904 16.0484 11.9464 16.278 12.9409C14.4356 12.8504 12.6328 12.3729 10.9871 11.5395C9.34147 10.7061 7.8898 9.53533 6.72666 8.10357C6.14015 9.12154 5.96237 10.3243 6.22933 11.4684C6.49629 12.6126 7.18803 13.6125 8.1645 14.2657C7.44415 14.238 6.74047 14.0409 6.11044 13.6906V13.742C6.10404 14.8058 6.46243 15.8397 7.12587 16.6713C7.78931 17.5029 8.71773 18.0821 9.75639 18.3122C9.08639 18.4924 8.38458 18.5205 7.70233 18.3944C8.00303 19.3016 8.57703 20.0937 9.34562 20.6618C10.1142 21.23 11.0398 21.5465 11.9953 21.5679C10.3615 22.883 8.33097 23.6069 6.23368 23.622C5.86596 23.6113 5.4991 23.5805 5.13477 23.5295C7.25758 24.882 9.72476 25.5951 12.2418 25.5836" fill="#EDFCFF"/>
</svg>
